<?xml version="1.0" encoding="utf-8"?>
<!-- Generator: Adobe Illustrator 21.1.0, SVG Export Plug-In . SVG Version: 6.00 Build 0)  -->
<svg version="1.1" id="Lag_1" xmlns="http://www.w3.org/2000/svg" xmlns:xlink="http://www.w3.org/1999/xlink" x="0px" y="0px"
	 viewBox="0 0 469 234.5" style="enable-background:new 0 0 469 234.5;" xml:space="preserve">
<style type="text/css">
	.st0{fill:#FFFFFF;stroke:#000000;stroke-miterlimit:10;}
	.st1{fill:#00384C;}
	.st2{fill:#FFF5DE;}
	.st3{fill:none;stroke:#FFF5DE;stroke-width:1.2;stroke-miterlimit:5.36;}
	.st4{fill:#007F8D;stroke:#007E8D;stroke-miterlimit:5.36;}
	.st5{fill:#00928E;stroke:#009390;stroke-miterlimit:5.36;}
	.st6{fill:#FFFFFF;}
	.st7{fill:#00546D;stroke:#00546D;stroke-miterlimit:5.36;}
</style>
<rect x="-52.9" y="45.9" class="st0" width="558.9" height="219.5"/>
<title>Aktiv 1</title>
<g id="Lag_2">
	<g id="full">
		<path class="st1" d="M0,0v117.2h86.4c2.5-1.2,5.3-2.5,9.1-4.3c10-4.7,22.5-7.6,34.7-9.8c2.9-1.3,5.5-3.1,7.8-5.2
			c4.5-3.9,10.5-10.2,14.6-12.2s9.4,0.1,9.4,1.6c-0.1,2.3,0.2,4.5,0.9,6.7c0.1,0.2,0.2,0.5,0.3,0.7c0.2,0.4,0.3,0.7,0.5,1.1l0.1,0.1
			c0.1,0.2,0.3,0.4,0.4,0.7l0.2,0.3c7.9,10.6,38.1,16.3,64.3,16.2c28.8,0.5,58.5-5.8,89-10.7c12.9-2.1,26-3,39.1-2.6
			c-13.4,0.1-26.7,1.5-39.8,4.2c-25.8,5.2-51,11.3-75.7,13.4H385c1.1-2.2,2.3-4.3,3.7-6.4l-1.9-0.4c-16.1-4.6-35.6-5.6-55.4-3.8
			c19.6-2.5,39-2.2,55.2,1.7c1.1,0.2,2.6,0.5,3.6,0.8c1.2-1.4,2.6-2.6,4-3.8c8.4-6.2,10.6-5.5,13.8-5.6c2-0.1,3.9-0.6,5.7-1.5
			c1.3-0.5,2.6-0.9,4-1.2c1.7-0.5,3.4-0.6,5.1-0.2c3.8,1,3.5,7.4,3.5,7.4c-0.1,1.4-2,5.6-2.2,6.1c-0.5,0.7-1,1.5-1.4,2.2
			c-0.3,1-1.4,2-1.3,2.6c0,0.4,0.1,0.5-0.5,2H469V0H0z"/>
		<path class="st2" d="M424.5,43.2h-33v6.6h11.9v32h9.3v-32h11.8L424.5,43.2z M397.1,75.2h-19v-32h-9.3v38.6h28.3L397.1,75.2z
			 M323.2,65.5l7.2-15.7h3.4v15.7L323.2,65.5z M362.6,75.2h-19.8v-9.9h17.2v-6.6h-17.2v-8.9H362v-6.6h-36.6l-19.6,38.6h9.9l4.7-10.2
			h13.4v10.2h28.9L362.6,75.2z M292.9,74.5c-1.5,0.6-3.2,0.9-4.8,0.8h-6.6V65h7.9c1.4-0.1,2.7,0.2,3.9,0.9c0.8,0.8,1.2,1.9,1.1,3V72
			C294.4,73,293.8,74,292.9,74.5 M292,58.1c-0.6,0.6-2,0.8-4.2,0.8h-6.4v-9.1h6.2c2.3,0,3.8,0.2,4.4,0.7c0.7,0.7,1,1.7,0.9,2.6v1.9
			C293,56.2,292.7,57.2,292,58.1 M301.6,63.4c-1.1-1-2.6-1.7-4.1-1.9v-0.3c1.2-0.3,2.2-1,3-1.9c0.8-0.8,1.3-1.9,1.3-3.1v-4.7
			c0-3.1-1-5.2-2.9-6.4s-5.6-1.8-11.1-1.8h-15.6v38.6h16.1c5.1,0,8.9-0.6,11.5-1.9s3.9-3.5,3.9-6.7v-6
			C303.6,65.8,302.9,64.4,301.6,63.4"/>
		<path class="st3" d="M244.7,76.7c-2.6,0-4.4-0.3-5.4-0.9c-0.9-0.5-1.5-1.5-1.4-2.6V66c0-1,0.7-1.8,2-2.3L251.2,76
			C250,76.5,247.8,76.7,244.7,76.7z M265.1,76.2h-2.6c-0.4,0-0.8-0.2-1.1-0.5l-1.1-1.2c1.4-1.5,2.2-3.5,2.1-5.6v-9.6h-7.9v8.9
			L242,54.4c-0.4-0.6-0.6-1.3-0.5-2v-2.3c0-1.2,1.1-1.8,3.4-1.8c3.2,0.1,6.4,0.5,9.5,1.2v-5.9c-3.3-0.6-6.6-0.9-9.9-1
			c-3.6,0-6.4,0.6-8.4,1.7c-1.9,0.9-3.1,2.9-3,5v4.7c0.1,1.6,0.7,3.2,1.9,4.3l1.8,1.9c-5.2,1.6-7.8,4-7.8,7.1v7.2
			c-0.1,2.6,1.5,5.1,4,6c3.4,1.4,7,2,10.6,1.9c4.8,0,8.6-0.8,11.5-2.3l0.4,0.4c0.8,0.8,2.1,1.2,4,1.2h5.5L265.1,76.2z"/>
		<path class="st2" d="M210.2,74.4c-1.3,0.5-3.8,0.8-7.4,0.8H196V49.8h7.1c2.4-0.1,4.7,0.2,6.9,1.1c1.5,0.7,2.4,2.2,2.3,3.9v15.9
			C212.3,72.7,211.6,73.9,210.2,74.4 M217.3,45.7c-2.8-1.6-7.5-2.4-14.1-2.4h-16.4v38.6h16.5c6.8,0,11.5-0.8,14.2-2.3
			c2.7-1.5,4-4.5,4-8.9V55C221.5,50.4,220.1,47.3,217.3,45.7 M168.7,59.7c-0.8,0.6-2.3,0.9-4.5,0.9h-8V49.8h8c1.5-0.1,3,0.2,4.4,0.8
			c0.9,0.7,1.4,1.8,1.3,2.9v2.7C169.9,58,169.5,59.1,168.7,59.7 M170.2,66c2.3-0.2,4.4-1,6.3-2.4c1.7-1.3,2.6-3.3,2.5-5.5v-6.8
			c0-3-1.2-5.1-3.5-6.3c-2.3-1.2-6-1.8-11.1-1.8H147v38.6h9.3V66.7h4.3l10.1,15.2h10.7L170.2,66z M129.5,73.8
			c-0.6,0.7-1.3,1.2-2.2,1.4c-0.9,0.3-1.8,0.5-2.8,0.6c-2.2,0.2-4.4,0.2-6.6,0c-0.9-0.1-1.9-0.3-2.8-0.6c-0.9-0.2-1.7-0.7-2.2-1.4
			c-0.5-0.7-0.8-1.6-0.8-2.5v-17c-0.2-1.7,0.7-3.3,2.3-4c2.2-0.8,4.5-1.2,6.8-1.1c2.3-0.1,4.6,0.3,6.8,1.2c1.5,0.7,2.4,2.3,2.3,3.9
			v17C130.3,72.2,130.1,73.1,129.5,73.8 M138.2,49.1c-0.8-1.4-1.9-2.6-3.2-3.5c-1.4-0.9-3-1.5-4.6-1.9c-1.6-0.5-3.2-0.8-4.8-0.9
			c-1.4-0.1-2.9-0.2-4.5-0.2c-1.5,0-3,0.1-4.4,0.2c-1.6,0.2-3.2,0.5-4.8,0.9c-1.6,0.4-3.1,1.1-4.6,1.9c-2.9,1.9-4.6,5.2-4.6,8.7
			v16.9c-0.1,2.1,0.6,4.2,1.8,5.9c1.2,1.6,2.9,2.8,4.9,3.4c1.9,0.7,3.8,1.2,5.8,1.5c1.9,0.3,3.9,0.4,5.8,0.4c2.1,0,4.1-0.2,6.2-0.5
			c2-0.3,4-0.9,5.8-1.6c1.8-0.7,3.5-1.9,4.6-3.5c1.2-1.6,1.8-3.6,1.7-5.6V54.4C139.6,52.5,139.1,50.7,138.2,49.1 M86.2,43.2v28.4
			c0,2.8-1.6,4.2-4.7,4.2c-2.5-0.1-4.9-0.3-7.3-0.8v6.8c2.6,0.4,5.3,0.6,8,0.6c4.3,0,7.6-0.8,9.9-2.4c2.3-1.6,3.4-4.5,3.4-8.7V43.2
			L86.2,43.2z M77.5,43.2h-30v38.6h9.3V65.9h18.8v-6.6H56.7v-9.5h20.8L77.5,43.2z"/>
		<path class="st1" d="M243,150.9c-1.6-1.9-2.5-5.2-3-8.6c-0.3-1.8-0.9-3.5-1.9-5.1c0-0.2,0.1-0.4,0.2-0.6c1.7-2.4,0.9-3.1,1.5-6.6
			c0.5-2.2,1.8-4.2,3.7-5.5c0,0,2.1-2.4-4.9-0.2c-8.4,2.7-10.3,6.1-10.9,7s-2.1-0.3-2.1-0.3s-3.7-2.3-14.4-7.7s-18.4-9-25-11.1
			c-6.6-2.2-13.2-4-20-5.3c0,0-4.9-1.7-7.2-5.2s-2.1-8.1-2.1-9.5s0.6-5.6-3.5-3.8s-10.2,7.8-14.8,11.6c-2.3,2-5,3.7-7.9,4.9
			c-12.1,1.8-24.5,4.2-34.5,8.5s-13,5.2-22.4,11.2S56.8,136,54,141.9s-2,9.7-2.3,10.9c-0.4,1.7-0.6,3.4-0.7,5.1
			c0.1,0.7,0.5,0.6,0.8,0.7s0.1,0.8,0.1,0.8c1.1,2.6,2.8,3.1,12.2,2.1s17.7-1.6,17.7-1.6c4.5,1,14.2-0.7,14.2-0.7s1,0.9,5.8,4
			s11.7,4.9,14.8,4s3.7-3.3,0.7-5.4c-1.6-1-2.9-2.2-4-3.7l0.2-0.3c0,0,23.9-2.7,27.9-3.5s16.5-2.9,25.1-6.2s14.2-5.1,17.6-6.7
			s9.2-2,21.1-0.4c6.7,0.8,13.3,2.1,19.8,3.7c1,0.3,2.1,0.4,3.1,0.4c2,2.3,6.6,6.7,6.6,6.7c0.7,0.3,1.3,0.7,1.9,1.2
			c1.8,1.2,8.4,3.9,9.5,3S244.7,152.8,243,150.9"/>
		<path class="st4" d="M185.4,196.9c0,0-2.7-1.3-0.7-2.9s5.3-3,6.4-3.8s4-2.9,8.6-6.2s11.8-5,11.9-5c1.3-1.6,2.7-3.1,4.2-4.5
			c0.2-0.1,0.4-0.2,0.6-0.2c0,0,2.4-2.5,4-2.8c0.6-0.4,1.3-0.7,2-0.7c0.9,0,0.7,0.1,0.7,0.1l0.6,0.2c0.2-0.1,0.4,0,0.5,0.2
			c0,0,0,0,0,0c0.1,0.2,0.2,0.4,0.3,0.5c0,0,0.2,0.2,0.4,0.4c0.2,0.2,0.4,0.4,0.6,0.6c0.1,0.2,0.3,0.2,0.2,0.4
			c-0.1,0.4-0.1,0.8,0,1.1c0.2,0.4,0.4,0.7,0.3,0.9s0,0.1,0,0.4s0.2,0.3,0.2,0.6s0.1,0.2,0,0.6s0.6,0.2,1.2-0.4
			c1.1-1.1,2.4-2,3.7-2.8c1-0.5,2-0.8,2.3-0.9s0.7-0.1,0.9-0.2c0.2-0.1,0.5-0.2,0.8-0.3c0.2,0,0.2-0.1,0.3,0s0.4,0.1,0.5,0.2
			s0.1,0,0.4,0.2c0.3,0.2,0.6,0.4,0.9,0.5c0.1,0.1,0.3,0.1,0.4,0.2l0.4,0.3h0.2c0,0,0.3,0.3,0.4,0.4s0.3,0.2,0.5,0.3
			s0.5,0.3,0.7,0.4s0.2,0,0.4,0.3s0.2,0.5,0.7,0.7c0.4,0.1,0.8,0.3,1.2,0.6c0.1,0.2,0.4,0.4,0.6,0.3c1-0.5,1.8-1.2,2.5-2
			c0.7-0.8,1.5-1.5,2.3-2.1c0.3-0.2,0.7-0.2,1.1,0c0.2,0.2,0.4,0.4,0.6,0.6c0,0,0.2-0.1,0.4-0.8c0.4-1,0.8-2,1.3-2.9
			c0.1-0.3,0.4-0.6,0.7-0.1c0.3,0.4,0.5,0.8,0.7,1.3c0,0.4,0.1,0.3,0.2,0.5c0,0.2,0,0.3,0,0.5c0,0.3,0.2,0.5,0.1,0.7
			c-0.1,0.2-0.1,0.4-0.1,0.7c0.1,0.2,0.7,1.2,0.7,1.4s-0.1,1.2-0.2,1.2s-0.1,0.5-0.1,0.7s0.2,0.3,0.2,0.6c0,0.3,0,0.6,0,0.9
			c0.1,0.2,0.2,0.2,0,0.4s-0.6,0-0.6,0.4s0.2,1.1,0.1,1.4s0,0.5,0,0.8s0.2,0.6,0.2,1c0.2,0.5,0,1.1-0.5,1.4
			c-0.6,0.3-1.2-0.1-1.5-0.1s-1,0-1.3-0.3s-0.6,0.5-0.5,1.1s0.3,1.1,0.4,1.5c0.1,0.2,0.1,0.4,0.1,0.5c0,0.3,0.3,0.1,0.1,0.5
			s-0.2,0.2-0.2,0.6s0.2,0.4,0.1,0.8s0.1,0.9-0.4,0.9c-0.9-0.3-1.8-0.6-2.7-0.9c-0.4-0.3-0.8-0.5-1.2-0.6l-1.3,0.9l-0.2,1.1
			c0,0.1,0,0.2,0,0.3c-0.1,0.1-0.1,0.3-0.1,0.5v0.3c-0.1,0.2-0.1,0.4,0,0.6c0.1,0.2,0.2,0.2,0.1,0.4c-0.1,0.1-0.1,0.2-0.2,0.3
			c0,0,0.3,0.4,0.1,0.6c-0.1,0.1-0.1,0.2-0.2,0.3c-0.1,0.1-0.1,0.2-0.1,0.3c0,0.1,0.1,0.4-0.1,0.5c-0.1,0.1-0.2,0.2-0.2,0.4
			c0,0.1,0,0.2-0.1,0.4s0,0.3-0.2,0.4c0,0-0.1,0.1-0.2,0.1c0,0-0.2,0.4-0.1,0.6s0.1,0.5-0.1,0.4s-0.3,0-0.3,0.1s-0.3,0.6-0.1,0.7
			s0.1,0.2,0,0.3c-0.1,0.1-0.2,0.1-0.3,0.1c-0.2,0,0.1,0.3,0,0.6s-0.1,0.4-0.2,0.5c-0.1,0.1-0.1,0.2-0.2,0.3
			c-0.1,0.1-0.1,0.3-0.1,0.4c0.1,0.2,0.2,0.3,0,0.4s-0.3,0-0.4,0.2s0.1,0.1-0.1,0.4s-0.1,0.3-0.2,0.4s-0.1,0.1-0.2,0.3
			s0.2,0.4-0.2,0.2c-0.3-0.1-0.6-0.1-0.9-0.1c0,0,0.1,0.3-0.4,0.2s-1.4-0.6-1.4-0.6s-0.1,0.4-0.8,0s-1.3-0.8-1.3-0.8
			c-0.2,0-0.3,0-0.5-0.1c-0.3-0.1-2.9-2.1-2.9-2.1l-0.1-0.1c-3,1.3-6.1,2.2-9.2,2.8c-2.5,0.6-5.1,1-7.6,1.2l0.2,0.3h0.4v0.2
			c0.2,0.2,0.4,0.4,0.6,0.5c0.2,0.1,0.3,0.3,0.3,0.5c0.1,0.2,0.2,0.4,0.4,0.5c0.2,0.1,0.4,0.2,0.5,0.4c0,0.1-0.1,0.1-0.1,0.3
			s0.1,0.2,0.2,0.3s-0.1,0.3-0.1,0.3s-0.1,0.1,0,0.2c0.1,0,0.2,0.1,0.3,0.1c-0.2,0-0.4,0.1-0.6,0.2c-0.2,0.1-0.3,0.2-0.4,0.3
			c0.4,0,0.7,0,1.1,0h0.4l0.6-0.2c-0.9,0.5-2,0.7-3,0.4c-0.2-0.1-0.4-0.2-0.7-0.2c-0.3,0-0.5,0.1-0.8,0.2c-0.2,0.1,0.2,0.4,0.6,0.5
			c0.3,0.1,0.7,0.1,1,0L215,206c0,0-3.4-1.5-3.7-1.6s-1,0.2-1.6,0.1c-0.3-0.1-0.7-0.2-1.1-0.2c-0.3,0-0.6,0-0.8-0.1
			c-0.5-0.1-0.4-0.1-0.6-0.2c-0.3-0.7-0.5-1.4-0.7-2.2c-2.9,0.1-5.9,0-8.8-0.2c-4.2-0.4-9-1.2-9.7-1.4c-0.4,0-0.8-0.2-1.1-0.4
			c0,0-0.4,0.3-0.2,0.7c0.4,0.5,0.9,0.9,1.6,1c0.6,0-0.9,0.5-1.9-0.7s0.1-1.4,0.1-1.4s-0.7-0.4-0.9-0.9s-0.1-0.6-0.1-0.7
			c-0.1-0.2-0.2-0.5-0.2-0.7"/>
		<path class="st5" d="M266.1,152.7c-0.1-1-1.3-1.8-2.6-1.9c-1.7-0.1-3.4-0.4-5.1-0.7c-1.4-0.3-3.5-0.8-4.6-1.1
			c-1.3-0.4-2.6-0.9-3.9-1.6c-0.8-0.4-1.7-0.9-2.4-1.4c-0.3-0.3-0.5-0.6-0.6-1c0-0.2,0.1-0.5,0.2-0.6c0.3-0.1,0.5-0.1,0.8-0.1
			c0.8,0,1.6-0.1,2.4-0.2c1-0.1,1.8-0.3,1.6-0.4c-0.4-0.3-0.9-0.6-1.4-0.8l-1.8-0.8l-1-0.5c-0.3-0.1-0.4-0.4-0.4-0.7
			c0.1-0.3,0.2-0.6,0.4-0.9c0.7-0.6,1.4-1.1,2.2-1.5c1-0.6,3.4-1.7,5.2-2.6l8-3.6c2.6-1.2,5.9-2.5,7.3-3s3.6-1.1,5-1.5
			c1.9-0.4,3.7-0.7,5.6-0.9c1.8-0.2,3.5-0.9,5-2c1.2-1.1,2.5-2.1,3.9-3.1c1.1-0.8,2.2-1.2,2.5-1c0.6,0.7,1.1,1.4,1.6,2.1
			c0.6,1,1.4,1.8,2.2,2.6c0.6,0.5,1.2,1.1,1.8,1.7c0.5,0.6,0.9,1.2,1.2,1.9c0.2,0.5,0.4,1,0.6,1.6c0.2,0.5,0.6,0.8,1,1.1
			c0.6,0.5,1.1,1.1,1.6,1.7c0.4,0.6,1.2,1.8,1.8,2.7c0.6,1.1,1.2,2.2,1.7,3.4c0.4,1,0.7,2,0.8,3c0.1,0.7,0.2,1.8,0.2,2.3
			c0.1,0.6,0.4,1.1,1,1.4c0.5,0.2,1.3,0.5,1.7,0.7c0.4,0.1,0.7,0.4,1,0.7c0.1,0.2,0.2,0.4,0.2,0.6c-0.1,0.2-0.2,0.3-0.3,0.4
			c-0.4,0.1-0.9,0.2-1.3,0.2c-0.6,0-1.1,0-1.7-0.1c-0.5,0-0.9,0.3-1.1,0.7c-0.2,0.5-0.6,1.4-0.9,2.2c-0.3,1-0.3,2.1,0.1,3.1
			c0.4,1,1,2.6,1.2,3.6c0.3,1.1,0.6,2.1,0.7,3.2c0.1,0.8,0.2,1.7,0.2,2.1c0,0.3-0.1,0.7-0.2,1c-0.2,0.2-0.4,0.4-0.7,0.6
			c-0.4,0.1-0.8,0.1-1.2,0c-0.7-0.3-1.4-0.6-2-0.9c-0.6-0.3-1.2-0.7-1.6-1.3c-0.3-0.5-0.5-0.9-0.6-1.5c-0.1-0.5-0.4-0.8-0.5-0.7
			c-0.3,0.3-0.5,0.7-0.6,1.2c-0.3,1.3-0.5,2.7-0.6,4c-0.2,1.7-0.7,4.9-1.2,7.2c-0.4,1.9-0.9,3.8-1.7,5.6c-0.3,0.7-0.7,1.2-1.3,1.8
			c-0.3,0.2-0.9-0.1-1.4-0.6c-1.3-1.7-2.4-3.4-3.4-5.3c-1.4-2.4-3.1-4.6-3.7-4.9c-0.7-0.4-1.3-0.9-1.9-1.4c-0.7-0.8-1.6-1.5-2.5-2.1
			c-1-0.6-1.8-1.3-2.6-2.1c-0.3-0.4-0.7-0.8-1.1-1.2c-0.5-0.5-0.9-1.1-1.3-1.7c-0.5-0.8,0.2-2.1,1.7-2.9c1.4-0.8,2.9-1.5,4.5-2.1
			c1.1-0.4,2.2-0.7,3.4-1c0.8-0.2,1.7-0.4,2.5-0.8c0.6-0.3,1.1-0.7,1.5-1.2c0.4-0.4,0.7-0.9,1-1.4c0.2-0.4,0.4-0.8,0.5-1.2
			c0-0.4-0.1-0.9-0.3-1.3c-0.3-0.5-0.8-0.8-1.3-0.8c-0.5,0-2.4,1.9-3.9,2s-2.2-1.3-2.2-1c0.1,0.2,0.1,0.5,0.1,0.7
			c0,0.2-0.1,0.4-0.3,0.5c-0.3,0.1-0.7,0.2-1.1,0.1c-0.9-0.2-1.9-0.4-2.8-0.6c-1.4-0.3-2.9-0.4-4.3-0.3c-1.3,0.2-2.3,0.6-2.2,0.9
			c0.1,0.4,0.1,0.9,0,1.4c-0.2,0.6-0.5,1.1-0.8,1.6c-0.3,0.5-0.9,1.5-1.4,2.2c-0.3,0.6-0.7,1.2-1.2,1.8c-0.4,0.4-0.8,0.7-1.3,1
			c-0.4,0.2-0.8,0.4-1.2,0.4c-0.2,0-0.6-0.6-0.8-1.3s-0.6-1.8-0.8-2.5c-0.2-1-0.4-2-0.5-3"/>
		<path class="st6" d="M407.4,119.7L407.4,119.7C407.6,119.8,407.6,119.8,407.4,119.7"/>
		<path class="st2" d="M317.7,102.2c-30.5,4.8-60.2,11.2-89,10.7c-26.2,0.1-56.4-5.5-64.3-16.2l-0.2-0.3c-0.2-0.2-0.3-0.4-0.4-0.7
			l-0.1-0.1c-0.2-0.3-0.4-0.7-0.5-1.1c-0.1-0.2-0.2-0.5-0.3-0.7c-0.7-2.2-1-4.4-0.9-6.7c-0.1-1.4-5.4-3.6-9.4-1.6S142.5,94,138,97.9
			c-2.3,2.1-4.9,3.9-7.8,5.2c-12.2,2.2-24.7,5.1-34.7,9.9c-4.4,1.9-8.7,4.1-12.9,6.5c4-2.1,7.5-3.4,13.7-6.1
			c10-4.3,22.4-6.7,34.5-8.5c2.9-1.2,5.5-2.8,7.9-4.9c4.6-3.8,10.7-9.8,14.7-11.6s3.5,2.3,3.5,3.8s-0.3,5.9,2.1,9.5s7.2,5.2,7.2,5.2
			c6.8,1.4,13.4,3.1,20,5.3c4.2,1.4,8.4,3.1,12.4,5c10,0.9,20.1,1.2,30.1,0.8c28.8-0.7,58-8.1,88.3-14.2c13.1-2.7,26.5-4.1,39.8-4.2
			C343.7,99.4,330.6,100.2,317.7,102.2"/>
		<path class="st7" d="M429,183.3c-2.5-1.9-4.9-4-7.1-6.2c-1.8-2-4.8-3.9-5.2-4.4c-0.7-0.9-1.5-1.8-2.4-2.5c-2-1.3-3.8-2.9-5.3-4.8
			c-1.7-2.4,2.5-8.7,2.3-9s3.6-7.1,5.2-18.5s1.6-14.4,3.2-18.2s1.5-3.7,1.4-4.3s1-1.6,1.3-2.6c0.4-0.8,0.9-1.5,1.4-2.2
			c0.2-0.5,2.1-4.7,2.2-6.1c0,0,0.3-6.4-3.5-7.4c-1.7-0.3-3.5-0.3-5.1,0.2l-0.7,0.2l-0.2,0.1l-0.5,0.2l-0.2,0.1l-0.4,0.2l-0.2,0.1
			l-0.3,0.1L415,98l-0.3,0.1l-0.1,0.1l-0.2,0.1h-0.1l-0.1,0.1l0,0h-0.1c-1.7,1-3.6,1.6-5.6,1.8c-3.2,0.3-5.8-0.3-13.8,6.4
			c-0.5,0.4-1,0.8-1.4,1.3l-0.5,0.5c-0.3,0.3-0.5,0.5-0.8,0.8s-0.4,0.4-0.5,0.6s-0.4,0.5-0.6,0.7s-0.4,0.5-0.6,0.7l-0.5,0.6
			c-0.2,0.3-0.4,0.5-0.6,0.8l-0.4,0.5c-0.2,0.3-0.4,0.6-0.6,0.9l-0.3,0.4c-0.2,0.3-0.4,0.7-0.7,1.1l-0.2,0.3l-0.8,1.3l0,0
			c-2.2,3.8-4.3,7.7-7.7,11.3l-0.7,0.7c-6,6.3-7.6,7.7-8,7.7c-2.4,0.4-4.7,1-6.9,2c-2.4,1.2-4.9,1.9-8.1,0.5s-7.2-1.5-15.2-5.7
			s-13.1-5.3-13.8-3.5c0,0.6,0.4,1.2,0.9,1.6c0.9,0.6-0.2,3.5-0.1,3.8c0.4,0.7,0.6,1.5,0.7,2.3c0.2,1.8-0.2,3,0.1,3.4
			s2.2,2.9,1.6,3.9s-1.5,1.6-0.4,2.1c1.5,0.7,2.9,1.7,4.2,2.8c1.5,1.4-1,2,0,2.7s4,0.9,6.2,0.5s6.6-1.1,9.6,0s4.5,3.1,7.3,3.4
			c0,0-6.8,10.6-11,28.3s-15.2,24.6-21.5,26.7c0,0-5.1,1.6-6.7,1s-7.5-4.6-10.4-6s-11.5-4-10.4-1.2s3.1,2.6,3.1,2.6s0.8,1.6,0,2.4
			s-0.2,1.3,0.9,1.2s1.8,0.8,1,1.9s-0.4,1.2-0.4,1.8s-0.5,2.7-1.6,3s0.2,1.5,0,2.1c-0.7,1-1.7,1.8-2.7,2.4c-1.1,0.6,0.8,3.1,2.2,3.4
			c2.5,0.4,5.1,0.2,7.4-0.7c2.5-1,5.6-3.1,8.3-3.9s0.7,2.2-0.3,2.4s-1.7,0.1-1.6,0.9s0.4,1.6,0,2.1s-1.6,2-2.3,2.7s-1.4,3.4-0.8,4.2
			c0,0,6.4-1.5,10.6-4.6c3-2.1,6.4-3.7,10-4.5c2.1-0.6,2.5-1.4,2.5-1.4s7.9,1.5,20.9-2.3s24.5-13.3,36.1-27.4c0,0,6.6-8.6,8.9-12.2
			s4-5.4,4.4-5.4s0-1,2.2,0s3.1,0.9,5.2,3s2.5,3.8,3,4.4c0.4,0.5,0.9,0.8,1.5,0.8c0.3,0-0.4-0.1,0.5-0.2c1.3,0,2.5,0.4,3.5,1.2
			c1,0.7,1.2,0.4,2,0.4c0.9-0.2,1.8-0.3,2.7-0.1c1,0.2,2,0.2,3-0.1c0.5-0.1,1.1-0.2,1.6-0.2c0.4,0.1,0.9,0,1.3-0.1
			c0.2-0.1,0.6,0.4,1.1,0.1s1.1-0.7-0.7-2.1"/>
		<path class="st2" d="M386.7,110.5c0.5,0.1,1.5,0.3,1.9,0.4c0,0-1.7,2.1-8.5,15.9c2.3-3,4.4-6.2,6.2-9.5l0,0l0.8-1.3l0.2-0.3
			l0.7-1.1l0.3-0.4c0.2-0.3,0.4-0.6,0.6-0.9l0.4-0.5c0.2-0.3,0.4-0.5,0.6-0.8l0.5-0.6c0.2-0.2,0.4-0.5,0.6-0.7s0.4-0.5,0.6-0.7
			s0.4-0.4,0.5-0.6s0.5-0.5,0.8-0.8l0.5-0.5c0.5-0.4,0.9-0.8,1.4-1.3c8-6.8,10.6-6.1,13.8-6.4c2-0.2,3.9-0.8,5.6-1.8h0.1l0,0
			l0.2-0.1h0.1l0.2-0.1l0.1-0.1l0.3-0.1l0.2-0.1l0.3-0.1l0.2-0.1l0.4-0.2l0.2-0.1l0.5-0.2l0.2-0.1l0.7-0.2c-1.4,0.2-2.7,0.6-4,1.2
			c-1.8,0.9-3.7,1.4-5.7,1.5c-3.2,0.1-5.4-0.7-13.8,5.6c-1.4,1.1-2.8,2.4-4,3.8c-1-0.2-2.5-0.6-3.6-0.8c-16.2-3.9-35.7-4.2-55.2-1.7
			C351,105,370.6,106,386.7,110.5"/>
		<path class="st2" d="M68.7,145.2c-0.9,0.1-2.4,1.6-2.1,0.3s1-1.5,2.7-1.3c1.1,0.2,1.9,1,2.3,2C70.7,145.7,69.8,145.4,68.7,145.2"
			/>
	</g>
</g>
</svg>
