<svg xmlns="http://www.w3.org/2000/svg" viewBox="0 0 316.23 316.23"><defs><style>.cls-1{fill:none;stroke:#141414;stroke-miterlimit:10;stroke-width:10px;}.cls-2{fill:#141414;}</style></defs><title>Aktiv 2</title><g id="Lag_2" data-name="Lag 2"><g id="Lag_1-2" data-name="Lag 1"><circle class="cls-1" cx="158.11" cy="158.11" r="153.11"/><path class="cls-2" d="M225.11,221.26a13.94,13.94,0,0,0,9.55-3.6l-46.22-46.22-3.2,2.3q-5.19,3.82-8.42,6a51.75,51.75,0,0,1-8.6,4.37,26.21,26.21,0,0,1-10,2.23H158a26.2,26.2,0,0,1-10-2.23,51.62,51.62,0,0,1-8.6-4.37q-3.23-2.14-8.42-6l-3.19-2.31L81.56,217.66a14,14,0,0,0,9.55,3.6Z"/><path class="cls-2" d="M87.62,142.34a48.22,48.22,0,0,1-9.2-7.92v70.32L119.16,164Q106.94,155.46,87.62,142.34Z"/><path class="cls-2" d="M228.7,142.34Q210.1,154.93,197.08,164l40.72,40.72V134.42A50.18,50.18,0,0,1,228.7,142.34Z"/><path class="cls-2" d="M225.11,95h-134q-7,0-10.79,4.73a18.37,18.37,0,0,0-3.78,11.84q0,5.73,5,12.43a45.17,45.17,0,0,0,10.65,10.51q3.09,2.19,18.66,13c5.6,3.88,10.47,7.27,14.66,10.19l9.19,6.43,1.36,1,2.51,1.81q3,2.14,4.92,3.46t4.73,3a27.7,27.7,0,0,0,5.24,2.46,14.5,14.5,0,0,0,4.55.82h.18a14.5,14.5,0,0,0,4.55-.82,27.59,27.59,0,0,0,5.23-2.46q2.78-1.64,4.74-3t4.92-3.46l2.51-1.81,1.36-1,9.21-6.4,33.39-23.19a43.29,43.29,0,0,0,11.11-11.2,24.08,24.08,0,0,0,4.46-13.75A14.68,14.68,0,0,0,225.11,95Z"/></g></g></svg>