<svg xmlns="http://www.w3.org/2000/svg" xmlns:xlink="http://www.w3.org/1999/xlink" viewBox="0 0 444.72 259.41"><defs><style>.cls-1{fill:none;}.cls-2{clip-path:url(#clip-path);}.cls-3{fill:#fff;}.cls-4{fill:#bd0034;}.cls-5{fill:#1a237b;}</style><clipPath id="clip-path"><rect class="cls-1" width="444.72" height="259.41"/></clipPath></defs><title>engelsk</title><g id="Lag_2" data-name="Lag 2"><g id="Lag_1-2" data-name="Lag 1"><g id="UNITED_KINGDOM" data-name="UNITED KINGDOM"><g class="cls-2"><rect class="cls-3" width="444.72" height="259.41"/><polygon class="cls-4" points="297.77 93.79 444.72 11.53 444.72 0 434.59 0 267.04 93.79 297.77 93.79"/><polygon class="cls-4" points="290.84 170.82 444.72 256.94 444.72 239.73 321.58 170.82 290.84 170.82"/><polygon class="cls-4" points="0 19.75 131.64 93.79 162.4 93.79 0 2.52 0 19.75"/><polygon class="cls-4" points="155.42 170.82 0 257.91 0 259.41 28.08 259.41 186.19 170.82 155.42 170.82"/><polygon class="cls-5" points="414.29 0 258.58 0 258.58 87.2 414.29 0"/><polygon class="cls-5" points="189.83 0 34.74 0 189.83 87.2 189.83 0"/><polygon class="cls-5" points="444.72 93.79 444.72 34.28 339.09 93.79 444.72 93.79"/><polygon class="cls-5" points="444.72 229.7 444.72 170.82 339.09 170.82 444.72 229.7"/><polygon class="cls-5" points="43.54 259.41 189.83 259.41 189.83 177.43 43.54 259.41"/><polygon class="cls-5" points="258.58 259.41 405.33 259.41 258.58 177.43 258.58 259.41"/><polygon class="cls-5" points="0 170.82 0 232.35 109.3 170.82 0 170.82"/><polygon class="cls-5" points="0 93.79 109.3 93.79 0 32.17 0 93.79"/><polygon class="cls-4" points="203.58 0 203.58 109.2 0 109.2 0 155.45 203.58 155.45 203.58 259.41 244.82 259.41 244.82 155.45 444.72 155.45 444.72 109.2 244.82 109.2 244.82 0 203.58 0"/></g></g></g></g></svg>