<svg xmlns="http://www.w3.org/2000/svg" viewBox="0 0 75.93 75.93"><defs><style>.cls-1{fill:#fff;}.cls-2{fill:#00384c;}</style></defs><title>instagram</title><g id="Lag_2" data-name="Lag 2"><g id="_04-FULL-COLOR" data-name="04-FULL-COLOR"><g id="Instagram"><circle class="cls-1" cx="37.97" cy="37.97" r="37.97"/><path id="Instagram-2" data-name="Instagram" class="cls-2" d="M52.89,19.54H24.95a4.35,4.35,0,0,0-4.36,4.35v28a4.35,4.35,0,0,0,4.36,4.35H52.89a4.35,4.35,0,0,0,4.36-4.35v-28A4.35,4.35,0,0,0,52.89,19.54Zm-6,5.73a1.15,1.15,0,0,1,1.15-1.15h3.44a1.15,1.15,0,0,1,1.15,1.15V28.7a1.15,1.15,0,0,1-1.15,1.15H48.09a1.15,1.15,0,0,1-1.15-1.15Zm-8,5.61a7,7,0,1,1-7,7A7,7,0,0,1,39,30.88ZM53.82,51.62a1.15,1.15,0,0,1-1.15,1.15H25.17A1.15,1.15,0,0,1,24,51.62V34.43h4.58a7,7,0,0,0-.8,3.48,11.15,11.15,0,0,0,22.31,0,5.87,5.87,0,0,0-.88-3.48h4.58Z"/></g></g></g></svg>