<svg xmlns="http://www.w3.org/2000/svg" viewBox="0 0 2532.57 2347.9"><defs><style>.cls-1{fill:#e74218;}.cls-2{fill:#ec6539;}.cls-3{fill:#343434;}.cls-4{fill:#f7f5f5;}.cls-5{fill:#fff;opacity:0.1;}</style></defs><title>krabbe</title><g id="Layer_2" data-name="Layer 2"><g id="Lag_1" data-name="Lag 1"><path class="cls-1" d="M2466.79,1872c-4.45,19.31-17.44-14.86-59.57-72.44s-61.56-41.67-98.54-86.38a109.52,109.52,0,0,1-9.25-13.35c-21.89-38.15,3.62-65.3,28.68-57,.81.34,1.75.71,2.69,1.17C2374.45,1661.58,2489.37,1771.37,2466.79,1872Z"/><path class="cls-2" d="M2299.44,1699.85c-8.08.37-18.26-1.05-30.55-4.66-25-7.27-45.52-17.81-64.13-28.92-7.84-4.69-15.34-9.49-22.82-14.17-23.18-14.49-45.18-28.07-72.32-34.17a106.59,106.59,0,0,1-13.11-3.86c-43.19-16.37-40-54.77-14.63-63.54,5.38-1.76,13.11-2.81,22.58-3.15,23.76-.71,58.63,3.52,94,12.41,8.78,2.1,17.55,4.68,26.22,7.47,49.74,16,95.15,41.67,106.14,76.78a28.08,28.08,0,0,1,.82,2.93C2335.6,1662.75,2336.89,1698.57,2299.44,1699.85Z"/><path class="cls-1" d="M2096.5,1614.06a109.45,109.45,0,0,1-25.52,6.79c-23.05,3.63-44,3.29-63.77,1.53-9.13-.71-17.91-1.76-26.57-2.81-24.34-3-47.4-6.19-71.16-3.63a126,126,0,0,0-15.57,2.47c-56.64,12.27-74.67-28.8-53.48-49.4,12.4-12,49.14-27.27,92.11-37.33,8.54-2,17.31-3.75,26.21-5.26a340.12,340.12,0,0,1,54.07-5.39c1.87-.11,3.64-.11,5.38-.11,1.29,0,2.57,0,3.86.11,34.29.48,65,7.84,82.39,26.33a36.88,36.88,0,0,1,2.93,3.15C2118,1563.64,2135.24,1597.45,2096.5,1614.06Z"/><path class="cls-1" d="M2531.86,1683.34c-2.11,19.8-19-12.75-67.29-65.17s-65.9-34.42-107.56-74.79a88.74,88.74,0,0,1-10.77-12.18c-26-35.45-3.75-65.28,22-59.8l2.81.71C2416.47,1484.76,2543.1,1580.83,2531.86,1683.34Z"/><path class="cls-2" d="M2346.25,1531.2c-8.08,1.3-18.26,1.07-30.89-1.17-25.63-4.32-47.17-12.53-67-21.53-8.31-3.75-16.38-7.61-24.22-11.47-24.7-11.82-48.1-22.81-75.84-25.85a109.85,109.85,0,0,1-13.46-2.33c-31.94-8.09-41.66-30.08-35.69-46.24a26.64,26.64,0,0,1,14-15.2c4.33-2,10.3-3.63,17.67-4.94,1.41-.34,2.93-.57,4.45-.8,23.53-3.41,58.64-3.18,94.69,1.74,9,1.19,18,2.7,27,4.46,51.14,10.42,99.25,30.79,114,64.25.47,1.05.81,2,1.28,2.93C2378.08,1490.24,2383.35,1525.72,2346.25,1531.2Z"/><path class="cls-1" d="M2134.88,1468.85a105.77,105.77,0,0,1-24.57,9.69c-22.47,6.22-43.3,8.21-63.08,8.66-9.6.37-18.85.25-28,.25-16.85-.25-33.12-.48-49.14,1.17a163.28,163.28,0,0,0-35.93,7.36c-55,18.74-77.48-20.23-58.76-42.95,8-9.71,28.21-22.47,54.42-34.17,10.18-4.69,21.18-9.23,32.88-13.33,6.21-2.24,12.64-4.34,19.09-6.33a404.93,404.93,0,0,1,41.66-10.54c7.84-1.4,15.57-2.68,23.18-3.5l3.85-.37c33.12-3.27,63.67.25,83.21,15.68a7.4,7.4,0,0,1,1.63,1.19,37.94,37.94,0,0,1,3.28,2.93C2150.69,1416.3,2171.64,1448,2134.88,1468.85Z"/><path class="cls-1" d="M2304.46,2129c-9.59,17.33-12.76-19.06-37.1-86s-47.75-57-70.92-110.24a92.1,92.1,0,0,1-5.16-15.45c-10.53-42.58,21.42-61.67,43.19-46.7.7.59,1.52,1.19,2.34,1.76C2273.93,1901.38,2354.09,2038.55,2304.46,2129Z"/><path class="cls-2" d="M2236.83,1872.35v3.18c-.47,16.25-9.25,50.9-45.53,41.76-8-1.87-17.31-6.08-28.08-12.76-42.72-26.9-65.66-61.08-93.28-88.46a168.76,168.76,0,0,0-19.54-17.44,147.29,147.29,0,0,0-19-12.53,115.66,115.66,0,0,1-11.46-7.27c-37-27.61-23.41-63.66,3.62-65.05,5.62-.37,13.22.69,22.47,3.15,6,1.51,12.64,3.64,19.78,6.19s14.74,5.62,22.58,9C2152.68,1760.35,2235.42,1816.88,2236.83,1872.35Z"/><path class="cls-1" d="M2020,1778.84a113.32,113.32,0,0,1-26.45-.46c-33.94-4.2-61-15.34-86.38-26.22-24-10.31-46.46-20.37-71.85-24-1.17-.23-2.22-.23-3.39-.46l-7.84-.71c-16.62-1.17-29-5.62-37.45-11.82-19.9-14.15-19.07-37.44-3.62-48.46.94-.69,2.1-1.28,3.28-2,14.16-7.47,48.67-11.93,88.36-10.77,5.61.11,11.35.37,17.09.71a413.76,413.76,0,0,1,67.76,10.06c39.2,9.71,73,26.33,86.6,52.21a28.5,28.5,0,0,1,1.87,3.86C2054.61,1736.26,2061.74,1773.7,2020,1778.84Z"/><path class="cls-1" d="M2084.56,2345.05c-14.27,13.58-6.19-22.13-9.12-93.28s-28.09-68.8-33.94-126.63a129.56,129.56,0,0,1-.35-16.25c3.17-43.77,39.44-52.21,55.59-31.25.47.68,1.18,1.51,1.65,2.33C2124.82,2118.94,2159.35,2274,2084.56,2345.05Z"/><path class="cls-2" d="M2098.38,2080a15,15,0,0,1-.82,3c-5.5,15.22-24.46,45.76-56.41,25.88-6.9-4.34-14.52-11-22.7-20.71-33.47-39.91-44.48-80.53-63.43-116.09a196.6,196.6,0,0,0-15.45-24.34,145.61,145.61,0,0,0-10.54-12.41,85.57,85.57,0,0,1-8.65-10.54c-26.93-37.56-2.93-67.64,23.17-60.85a50.71,50.71,0,0,1,9.13,3.5,93,93,0,0,1,11.46,6.56,80.42,80.42,0,0,1,7.5,4.91C2026.75,1917.18,2117,2016.77,2098.38,2080Z"/><path class="cls-1" d="M1943.31,1923.85c-6,2.22-13.46,2.81-22.94.94-7.14-1.28-15.45-4.09-25.05-8.43-32.54-15.09-55.59-35.11-77.35-53.94-13.58-11.7-26.69-23.06-41.31-32.53a148.67,148.67,0,0,0-27.16-14.17c-53.94-21.19-46-65.42-17.09-70.79,8.55-1.53,22.58-.37,39.56,3,31.13,6.42,72.56,20.6,109,40.25h.11c32.18,17.33,60.39,39,74.44,63.09a65.83,65.83,0,0,1,8.65,22.7c.24,1.28.47,2.81.59,4.09C1966,1891.08,1963.55,1916.49,1943.31,1923.85Z"/><path class="cls-1" d="M65.85,1872c4.34,19.31,17.44-14.81,59.52-72.41s61.56-41.62,98.5-86.43a92.52,92.52,0,0,0,9.3-13.35c21.84-38.1-3.62-65.26-28.63-56.89a18.12,18.12,0,0,0-2.72,1.1C158.13,1661.61,43.2,1771.3,65.85,1872Z"/><path class="cls-2" d="M233.17,1699.8c8.12.37,18.22-1,30.5-4.59,25-7.25,45.51-17.78,64.12-28.92,7.85-4.69,15.43-9.46,22.84-14.15,23.21-14.56,45.23-28.09,72.42-34.22a107.05,107.05,0,0,0,13.1-3.91c43.16-16.32,40-54.72,14.52-63.45-5.33-1.81-13-2.9-22.56-3.18-23.75-.71-58.61,3.43-93.91,12.37-8.76,2.17-17.6,4.71-26.28,7.5-49.65,16.07-95.15,41.72-106.09,76.76-.34,1-.62,2-.9,3C197,1662.8,195.69,1698.52,233.17,1699.8Z"/><path class="cls-1" d="M436.14,1614c6.67,2.9,15.08,5.23,25.45,6.88,23.1,3.61,44.06,3.25,63.74,1.53,40.28-3.36,75.21-12.3,113.32-4.07,56.69,12.37,74.68-28.8,53.54-49.3C679.73,1557,643,1541.72,600,1531.68c-27.62-6.4-57.79-10.74-85.68-10.74-1.27,0-2.54,0-3.8.09-34.31.43-64.93,7.86-82.43,26.36a32.11,32.11,0,0,0-2.9,3.18C414.54,1563.64,397.29,1597.49,436.14,1614Z"/><path class="cls-1" d="M.69,1683.37c2.13,19.7,19-12.73,67.3-65.21s65.87-34.42,107.6-74.77a89.35,89.35,0,0,0,10.77-12.23c26-35.38,3.77-65.28-22-59.75a22.51,22.51,0,0,0-2.82.75C116.1,1484.76-10.47,1580.78.69,1683.37Z"/><path class="cls-2" d="M186.36,1531.16c8,1.28,18.22,1.07,30.84-1.14,25.67-4.34,47.22-12.53,67-21.49,8.33-3.75,16.41-7.66,24.29-11.47,24.7-11.84,48.12-22.81,75.81-25.85a106.8,106.8,0,0,0,13.46-2.38c44.72-11.38,45.91-49.85,21.59-61.44-5.1-2.38-12.58-4.32-22.08-5.69-23.51-3.38-58.61-3.18-94.69,1.71-9,1.19-18,2.67-27,4.48-51.16,10.38-99.25,30.72-114.07,64.28-.46,1-.84,1.92-1.23,2.88C154.55,1490.29,149.27,1525.67,186.36,1531.16Z"/><path class="cls-1" d="M397.72,1468.82c6.3,3.61,14.39,6.88,24.51,9.69,22.55,6.19,43.41,8.21,63.16,8.71,40.41,1.23,76.13-3.7,113.06,8.73,54.93,18.7,77.44-20.18,58.76-42.93-11-13.44-45.81-32.73-87.39-47.54-26.72-9.51-56.19-17.19-83.92-20.32-1.26-.16-2.51-.3-3.78-.37-34.13-3.41-65.4.5-84.89,16.89a35.25,35.25,0,0,0-3.22,2.83C381.94,1416.32,361,1448,397.72,1468.82Z"/><path class="cls-1" d="M228.13,2129c9.57,17.33,12.71-19.06,37.1-86s47.77-57,70.87-110.24a93.92,93.92,0,0,0,5.24-15.43c10.48-42.63-21.48-61.69-43.23-46.7-.73.55-1.54,1.07-2.36,1.71C258.64,1901.43,178.55,2038.58,228.13,2129Z"/><path class="cls-2" d="M295.75,1872.35v3.16c.53,16.25,9.22,50.93,45.59,41.83,8-1.9,17.25-6.08,28.08-12.82,42.72-26.93,65.56-61.05,93.27-88.51a189.32,189.32,0,0,1,19.5-17.42,151.17,151.17,0,0,1,19-12.46,100.58,100.58,0,0,0,11.46-7.31c37-27.61,23.38-63.64-3.61-65.1-5.6-.27-13.29.8-22.49,3.25-6,1.53-12.65,3.61-19.77,6.15s-14.72,5.6-22.58,9C379.9,1760.4,297.19,1816.93,295.75,1872.35Z"/><path class="cls-1" d="M512.63,1778.82a106.29,106.29,0,0,0,26.45-.46c66.1-8.3,106-42.61,158.28-50.2,1.09-.18,2.15-.27,3.35-.43,2.6-.27,5.23-.55,7.84-.75,55.35-3.7,63.12-44.48,41.07-60.21a30.38,30.38,0,0,0-3.24-2c-16.17-8.57-58.87-13.1-105.46-10.13-63.11,4.18-133.36,22.06-154.39,62.31a29,29,0,0,0-1.9,3.89C478,1736.28,470.81,1773.68,512.63,1778.82Z"/><path class="cls-1" d="M448,2345c14.37,13.62,6.23-22,9.12-93.19s28.07-68.87,34-126.66a108.42,108.42,0,0,0,.34-16.27c-3.15-43.77-39.36-52.25-55.52-31.32-.53.73-1.17,1.55-1.73,2.35C407.72,2118.92,373.22,2274,448,2345Z"/><path class="cls-2" d="M434.16,2079.93a19.59,19.59,0,0,0,.92,3.06c5.51,15.27,24.38,45.78,56.33,25.9,7-4.32,14.55-11,22.76-20.76,33.42-39.91,44.42-80.53,63.48-116A187.42,187.42,0,0,1,593,1947.74c3.26-4.25,6.77-8.41,10.57-12.46a96.3,96.3,0,0,0,8.68-10.47c26.9-37.58,2.89-67.73-23.21-60.87a54.62,54.62,0,0,0-9.12,3.52,97.87,97.87,0,0,0-11.46,6.51,86.38,86.38,0,0,0-7.5,5C505.87,1917.13,415.67,2016.82,434.16,2079.93Z"/><path class="cls-1" d="M589.29,1923.81c6,2.26,13.45,2.81,22.94,1a109.59,109.59,0,0,0,25-8.5c52.92-24.55,80.71-62,118.72-86.49a158,158,0,0,1,27.1-14.08c54-21.21,46-65.46,17.06-70.79-8.49-1.53-22.49-.37-39.48,3.06C701.88,1760,607,1799.85,577.1,1851.3a66.84,66.84,0,0,0-8.66,22.67c-.19,1.35-.46,2.79-.55,4.14C566.62,1891.05,569.07,1916.52,589.29,1923.81Z"/><path class="cls-2" d="M2024.77,1420.5c0,11.7-.47,23.29-1.52,35.11h-.13c0,1.17-.11,2.33-.23,3.52a13.9,13.9,0,0,1-.35,3c-.82,8.41-1.87,16.85-3.28,25.28-1.63,11.11-3.86,22.35-6.43,33.58a575.27,575.27,0,0,1-32.18,98.54c-6.43,15.11-13.45,30.2-21.18,45.17a809.46,809.46,0,0,1-52.32,87.43c-8.31,12.18-17.09,24.23-26.09,36h-.11a933.19,933.19,0,0,1-63,74.2c-.24.23-.47.48-.71.71a948.42,948.42,0,0,1-164.07,138.79c-9.13,6.08-18.49,12.18-28,17.78-111.52,68.71-235.81,111.66-358.94,112.6h-4.21c-3.86,0-7.61,0-11.47-.11-131.89-2.81-263.9-53.37-379.18-131.66A932.75,932.75,0,0,1,712.6,1864.17l-4.92-5.28c-20.71-22.33-40-45.62-58.16-69.51q-13.52-18.07-26-36.5a776.94,776.94,0,0,1-51.61-87.77c-7.61-15.11-14.51-30.31-20.84-45.42A595.26,595.26,0,0,1,519.38,1521c-2.58-11.22-4.68-22.47-6.32-33.58-1.52-9.49-2.69-19-3.51-28.32v-1.19c-.12-.8-.12-1.62-.23-2.45-1.17-11.82-1.52-23.29-1.52-35,0-10.65.46-21.3,1.29-31.84a420.12,420.12,0,0,1,27.85-120.53c1.64-4.23,3.27-8.55,5.15-12.75,5.5-13.24,11.7-26.22,18.49-39.22a497.09,497.09,0,0,1,29.49-48.43,586.74,586.74,0,0,1,75.25-89.88A57.24,57.24,0,0,1,670,1073c82.16-79.93,189.35-144,307.32-184.44a890,890,0,0,1,169-40.5,837.65,837.65,0,0,1,104.28-8c3.86-.11,7.61-.11,11.47-.11h4.21a863.68,863.68,0,0,1,120.2,9.23,915.32,915.32,0,0,1,152.14,36c5.14,1.65,10.3,3.41,15.33,5.28,117.61,40.82,224.82,104.51,307.09,183.84,1.29,1.42,2.57,2.47,3.75,3.75a605.65,605.65,0,0,1,76.77,90.58,531.23,531.23,0,0,1,29.37,47.64,437.45,437.45,0,0,1,19.07,39.66c1.76,4.11,3.52,8.21,5,12.3a414.26,414.26,0,0,1,28.44,120.3C2024.3,1399.2,2024.77,1409.85,2024.77,1420.5Z"/><path class="cls-2" d="M2283.87,1175.9c-1.29,51.38-25.63,100.07-60,142A369.32,369.32,0,0,1,2197.5,1347a491.24,491.24,0,0,1-63.78,53.46c-.94.59-1.87,1.3-2.81,2-10.65,7.27-21.29,14.06-31.72,20.14-19.19,11-37.57,19.91-54.07,26a28.17,28.17,0,0,1-2.8,1.05c-6.79,2.45-13.11,4.43-19.07,6h-.13a111,111,0,0,1-16.62,2.93,73.23,73.23,0,0,1-29-3.64c-.24-.11-.35-.11-.59-.23a91.63,91.63,0,0,1-47-35.82c-19.08-28.66-20.84-69.4,18.72-110.13a319.67,319.67,0,0,0,21.19-24.21c.82-.94,1.52-2,2.22-2.93,6.79-8.66,12.64-17.1,18-25.53,34.06-53.83,46.23-106.84,102.53-179.16,3.39-4.34,7-8.66,10.77-13.24a181.88,181.88,0,0,1,13.92-15.22c21.06-20.71,40.85-29.12,58.63-29.49a64.58,64.58,0,0,1,32.42,8.32c15,8.07,27.85,21.05,38.15,35.11a211.55,211.55,0,0,1,24.7,43.66A170.12,170.12,0,0,1,2283.87,1175.9Z"/><path class="cls-1" d="M2301.54,896.67c-.7,10.54-2.1,20.94-3.74,31.13-9,52.89-30.19,103-51.38,134.59a12.86,12.86,0,0,1-1.28,2c-.47.71-.82,1.39-1.29,2-6.67,9.49-13.22,17.07-19.31,22.36a57,57,0,0,1-20.6,11c-33.47,10.54-79.46-3.86-86.72-51.27a100.77,100.77,0,0,1,.35-30.77c1.41-9,2.34-17.44,2.81-25.51,3.27-55.36-13-92.8-15.68-154.73-.59-11.47-.59-23.86,0-37.33.23-4.46.47-9,.93-13.69,2.47-33,12.88-52.32,26.69-62.49a50.76,50.76,0,0,1,25.05-9.6c28.08-3.41,60.62,11.7,77.24,22.36a136,136,0,0,1,30.89,26.9,127.64,127.64,0,0,1,9.71,12.89C2298,810.54,2304.58,853.49,2301.54,896.67Z"/><path class="cls-1" d="M2003,665.42c-35.81,17.55-80.52,18-121.36-7l-.23-.25c-11.94-8.18-23.88-16.73-35.93-25.74-4-2.93-7.84-6-11.7-9-2.81-2-5.38-4-7.84-6.1-13.69-10.88-26.8-22.1-39.09-33.58-223.54-206.45-225.53-478.78-162.68-423.19,26.69,23.52,0,112.83,169,238.38,53.83,40,100.17,59.93,139.39,67.29a239,239,0,0,1,33.82-1.62c18,.34,40.49,2.93,60,11,21.06,8.66,38.73,24.12,43.89,50.33C2082.81,589.24,2050.74,642.24,2003,665.42Z"/><path class="cls-2" d="M2330.21,662a342.42,342.42,0,0,1-35.93,65c-6.79,9.71-14.16,19.43-22.34,29.14-2,2.45-4.1,5-6.45,7.47-1.17,1.42-2.33,2.81-3.62,4.23-48.45,54.29-102.87,72.66-157.17,69.62h-.35c-90.59-5.51-180.7-71.38-241.09-131.32-11.46-11.22-21.88-22.33-31-32.75-1.29-1.53-2.57-3-3.86-4.46-22.58-26.22-36.63-47.75-38.74-56.41-3.15-12.75-4-22-2.8-28.78,2.1-12.18,10.41-16.5,23.63-18.15,20.72-2.56,34.3,54.08,127.45-51.73a156.28,156.28,0,0,0,26.56-44.34c.58-1.65,1.29-3.29,1.87-4.91,21.18-59.57,17.78-157.28-113.88-274.8C1672.85,29.47,1578.87,80,1546.34,55.55c-83-62.24,280.75-127.91,579.89,138.93C2294.63,344.63,2395.52,502.15,2330.21,662Z"/><path class="cls-2" d="M248.71,1175.95c1.31,51.36,25.66,100,60,142,8.25,10.15,17.1,19.84,26.3,29.12,48.38,48.39,107.64,84.8,152.44,101.56,1,.37,1.87.75,2.78,1.05,13.6,4.91,25.79,8,35.78,8.87a72.52,72.52,0,0,0,29.07-3.57c49.85-16.09,92.23-81.08,28.94-146.24a312.13,312.13,0,0,1-21.26-24.16c-51.33-64.28-56.56-122.72-122.73-207.62-3.37-4.32-7-8.75-10.72-13.28-26.43-31.91-51-44.21-72.63-44.64a64.38,64.38,0,0,0-32.41,8.28c-31.28,16.87-53.51,55.77-62.81,78.79A169.22,169.22,0,0,0,248.71,1175.95Z"/><path class="cls-1" d="M257.39,776.44c-22.82,34.13-29.34,77.05-26.29,120.28.72,10.45,2,20.85,3.75,31.13,9.25,53.9,31.11,105,52.62,136.55.44.69.85,1.35,1.32,2,6.59,9.51,13.17,17.1,19.24,22.29a58.06,58.06,0,0,0,20.61,11.09c40,12.48,97.56-10.35,86.35-82.08a239.6,239.6,0,0,1-2.73-25.56c-3.86-65.58,19.68-106.13,15.64-192-.2-4.39-.5-8.94-.87-13.62-2.51-33-12.87-52.34-26.77-62.58a51.37,51.37,0,0,0-25-9.55C347.1,710.88,314.66,726,298,736.74A135.7,135.7,0,0,0,257.39,776.44Z"/><path class="cls-1" d="M462.27,525.87c-12.5,63.34,19.64,116.41,67.27,139.57,35.93,17.53,80.61,18,121.46-7.09l.19-.18q17.91-12.34,35.92-25.74,6-4.42,11.77-9c2.7-2,5.32-4,7.81-6.17,262.08-209,268.07-515.37,201.75-456.74-26.66,23.54,0,112.83-169,238.45-53.87,40-100.18,59.86-139.37,67.2,0,0-53.33-7.59-93.94,9.4C485.11,484.3,467.44,499.66,462.27,525.87Z"/><path class="cls-2" d="M406.36,194.46C237.94,344.66,137.08,502.17,202.42,662a340.4,340.4,0,0,0,35.92,65c6.77,9.74,14.14,19.36,22.28,29.05,3.24,3.91,6.59,7.89,10.14,11.75,48.56,54.4,103.14,72.8,157.46,69.6C518.9,832,608.9,766,669.39,706.18c11.46-11.27,21.87-22.42,30.93-32.8,1.37-1.53,2.63-3,3.91-4.43,22.53-26.26,36.56-47.73,38.76-56.48,8.68-35-.2-44.34-20.9-46.9S687.8,619.68,594.67,513.9a154.85,154.85,0,0,1-26.51-44.34c-23.26-59.11-23.36-159,111.91-279.73C859.78,29.43,953.7,80,986.24,55.6,1069.23-6.71,705.53-72.41,406.36,194.46Z"/><path class="cls-3" d="M1568.68,840a92.85,92.85,0,0,1-14.74,50.56,90.61,90.61,0,0,1-76.54,42.24,84.3,84.3,0,0,1-17.2-1.76c-39.33-7.5-69.75-40.73-73.73-81.81A79.26,79.26,0,0,1,1386,840a92.54,92.54,0,0,1,55.46-85.21,89.33,89.33,0,0,1,35.93-7.47C1527.85,747.34,1568.68,788.76,1568.68,840Z"/><path class="cls-4" d="M1552.35,816.46c0,24.21-19.33,43.84-43.2,43.84s-43.21-19.64-43.21-43.84,19.36-43.86,43.21-43.86S1552.35,792.21,1552.35,816.46Z"/><path class="cls-3" d="M963.9,840c0,51.2,40.9,92.71,91.37,92.71s91.36-41.51,91.36-92.71-40.89-92.73-91.36-92.73S963.9,788.81,963.9,840Z"/><path class="cls-4" d="M980.26,816.46c0,24.21,19.34,43.84,43.21,43.84s43.21-19.64,43.21-43.84-19.35-43.86-43.21-43.86S980.26,792.21,980.26,816.46Z"/><path class="cls-5" d="M2024.77,1420.5c0,11.7-.47,23.29-1.52,35.11h-.13c0,1.17-.11,2.33-.23,3.52a13.9,13.9,0,0,1-.35,3c-.82,8.41-1.87,16.85-3.28,25.28-1.63,11.11-3.86,22.35-6.43,33.58a575.27,575.27,0,0,1-32.18,98.54c-6.43,15.11-13.45,30.2-21.18,45.17a809.46,809.46,0,0,1-52.32,87.43c-8.31,12.18-17.09,24.23-26.09,36h-.11a933.19,933.19,0,0,1-63,74.2c-.24.23-.47.48-.71.71a948.42,948.42,0,0,1-164.07,138.79c-9.13,6.08-18.49,12.18-28,17.78-111.52,68.71-235.81,111.66-358.94,112.6h-4.21c-3.86,0-7.61,0-11.47-.11-131.89-2.81-263.9-53.37-379.18-131.66A932.75,932.75,0,0,1,712.6,1864.17l-4.92-5.28c-20.71-22.33-40-45.62-58.16-69.51q-13.52-18.07-26-36.5a776.94,776.94,0,0,1-51.61-87.77c-7.61-15.11-14.51-30.31-20.84-45.42A595.26,595.26,0,0,1,519.38,1521c-2.58-11.22-4.68-22.47-6.32-33.58-1.52-9.49-2.69-19-3.51-28.32v-1.19c-.12-.8-.12-1.62-.23-2.45-1.17-11.82-1.52-23.29-1.52-35,0-10.65.46-21.3,1.29-31.84a420.12,420.12,0,0,1,27.85-120.53c1.64-4.23,3.27-8.55,5.15-12.75,5.5-13.24,11.7-26.22,18.49-39.22a497.09,497.09,0,0,1,29.49-48.43,717.89,717.89,0,0,0-30.2,113.05c-6.43,36.5-10.53,76.89-9,118.43a426.91,426.91,0,0,0,5.38,55.36c1.87,11.36,4.22,22.81,7.14,34.17a322.93,322.93,0,0,0,11.93,37.92A328.66,328.66,0,0,0,626,1615.94c.12.11.24.37.35.48a301.79,301.79,0,0,0,36,37.44c25,22.24,54.53,41.78,86.6,59,176,94.2,432.67,116.78,501.6,121.24,11.35.82,17.67,1.05,17.67,1.05v3.75c37-1.87,326.75-19.77,518.33-123.71,32.77-17.78,62.73-38,88-61.21a309,309,0,0,0,31.94-34.06,29.76,29.76,0,0,0,2.93-4,326.45,326.45,0,0,0,49.27-89.51,348.88,348.88,0,0,0,11.36-37.81,315.43,315.43,0,0,0,6.78-33.94,428.09,428.09,0,0,0,4.93-55.48c1.17-41.42-3.17-81.44-9.84-117.6a701.38,701.38,0,0,0-30.42-112.83,531.23,531.23,0,0,1,29.37,47.64,437.45,437.45,0,0,1,19.07,39.66c1.76,4.11,3.52,8.21,5,12.3a414.26,414.26,0,0,1,28.44,120.3C2024.3,1399.2,2024.77,1409.85,2024.77,1420.5Z"/></g></g></svg>