<svg id="full" xmlns="http://www.w3.org/2000/svg" viewBox="0 0 468.96 233.94"><defs><style>.cls-1,.cls-8{fill:#fff5de;}.cls-2{fill:none;stroke:#fff5de;stroke-width:1.2px;}.cls-2,.cls-4,.cls-5,.cls-7{stroke-miterlimit:5.36;}.cls-3{fill:#00384c;}.cls-3,.cls-4,.cls-8{fill-rule:evenodd;}.cls-4{fill:#007f8d;stroke:#007e8d;}.cls-5{fill:#00928e;stroke:#009390;}.cls-6{fill:#fff;}.cls-7{fill:#00546d;stroke:#00546d;}</style></defs><title>logo4</title><path class="cls-1" d="M424.49,43.23h-33v6.61h11.9v32h9.28v-32h11.83Zm-27.36,32h-19v-32h-9.28V81.85h28.26Zm-73.95-9.76,7.2-15.65h3.39V65.49Zm39.44,9.76H342.87V65.31h17.19V58.7H342.87V49.84H362V43.23H325.44L305.81,81.85h9.87l4.7-10.17h13.38V81.85h28.85Zm-69.72-.77a10.83,10.83,0,0,1-4.82.77h-6.61V65h7.85a6.35,6.35,0,0,1,3.9.89,3.69,3.69,0,0,1,1.1,3V72a2.63,2.63,0,0,1-1.43,2.5M292,58.11q-.92.83-4.2.83h-6.37v-9.1h6.19q3.51,0,4.4.71a3.21,3.21,0,0,1,.89,2.62v1.9a4,4,0,0,1-.92,3m9.64,5.35a7.48,7.48,0,0,0-4.07-1.9v-.3a6.4,6.4,0,0,0,3-1.91,4.49,4.49,0,0,0,1.31-3.09V51.51q0-4.58-2.91-6.42t-11.12-1.85H272.2V81.85h16.06q7.61,0,11.48-1.9t3.87-6.72V67.27a4.94,4.94,0,0,0-1.94-3.81"/><path class="cls-2" d="M244.71,76.73q-3.93,0-5.35-.89a2.89,2.89,0,0,1-1.43-2.62V66q0-1.54,2-2.26L251.2,76Q249.41,76.73,244.71,76.73Zm20.34-.54h-2.62a1.47,1.47,0,0,1-1.07-.48l-1.13-1.25a7.81,7.81,0,0,0,2.14-5.59V59.3h-7.85v8.87L242,54.42a2.9,2.9,0,0,1-.54-2V50.14q0-1.84,3.39-1.85a43.54,43.54,0,0,1,9.52,1.25V43.65a61.08,61.08,0,0,0-9.87-1q-5.42,0-8.42,1.7a5.44,5.44,0,0,0-3,5v4.7A6.29,6.29,0,0,0,235,58.35l1.78,1.9Q229,62.69,229,67.39v7.2a6.23,6.23,0,0,0,4,6,25.36,25.36,0,0,0,10.62,1.88q7.14,0,11.48-2.26l.42.42q1.13,1.25,4,1.25h5.47Z"/><path class="cls-1" d="M210.21,74.44q-2,.8-7.38.8H196V49.84h7.08A16.71,16.71,0,0,1,210,50.91a3.9,3.9,0,0,1,2.26,3.87V70.66q0,3-2,3.78m7-28.76q-4.25-2.44-14.07-2.44H186.77V81.85h16.48q10.17,0,14.22-2.32t4-8.86V55q0-6.84-4.25-9.28m-48.51,14q-1.19.86-4.46.86h-8V49.84h8a8.71,8.71,0,0,1,4.37.8,3.21,3.21,0,0,1,1.28,2.94v2.74q0,2.5-1.19,3.36M170.23,66a12.92,12.92,0,0,0,6.27-2.38A6.38,6.38,0,0,0,179,58.17V51.39q0-4.46-3.51-6.31T164.4,43.24H147V81.85h9.28V66.67h4.28l10.11,15.17h10.71Zm-40.72,7.77a4.06,4.06,0,0,1-2.17,1.4,16.16,16.16,0,0,1-2.77.56,36.19,36.19,0,0,1-6.6,0,16.84,16.84,0,0,1-2.8-.56,4.23,4.23,0,0,1-2.23-1.4,3.87,3.87,0,0,1-.77-2.47v-17a4,4,0,0,1,2.26-4,16.15,16.15,0,0,1,6.78-1.1A15.78,15.78,0,0,1,128,50.38a4,4,0,0,1,2.29,3.92v17a4,4,0,0,1-.75,2.47m8.71-24.63A9.7,9.7,0,0,0,135,45.67a17.49,17.49,0,0,0-4.58-1.93,26.53,26.53,0,0,0-4.79-.92q-2.11-.18-4.49-.18c-1.54,0-3,.06-4.4.18a26.62,26.62,0,0,0-4.76.92,17,17,0,0,0-4.55,1.93,10.24,10.24,0,0,0-4.55,8.69v16.9a9.41,9.41,0,0,0,1.82,5.89,10.18,10.18,0,0,0,4.88,3.45,30.53,30.53,0,0,0,5.77,1.46,41,41,0,0,0,5.8.39,38.34,38.34,0,0,0,6.19-.48,27.75,27.75,0,0,0,5.83-1.63,10.48,10.48,0,0,0,4.64-3.48,9.11,9.11,0,0,0,1.72-5.59V54.36a10.2,10.2,0,0,0-1.31-5.26m-52-5.86V71.62q0,4.22-4.7,4.22a43.68,43.68,0,0,1-7.32-.77v6.78a57,57,0,0,0,8,.6q6.48,0,9.87-2.44t3.39-8.69V43.24Zm-8.75,0h-30V81.85h9.28V65.9h18.8V59.3H56.72V49.84H77.49Z"/><path class="cls-3" d="M243,150.89c-1.62-1.87-2.49-5.23-3-8.56a13.27,13.27,0,0,0-1.86-5.08,2.87,2.87,0,0,1,.19-.58c1.66-2.39.92-3.08,1.53-6.62a8.92,8.92,0,0,1,3.71-5.49s2.07-2.44-4.87-.23c-8.4,2.68-10.26,6.15-10.94,7s-2.07-.3-2.07-.3-3.73-2.29-14.41-7.7-18.4-9-25-11.12a168.87,168.87,0,0,0-20-5.32s-4.85-1.67-7.24-5.24-2.1-8.08-2.11-9.51.56-5.62-3.5-3.75S143.24,96.21,138.68,100a28.54,28.54,0,0,1-7.86,4.89c-12.07,1.79-24.48,4.18-34.48,8.5s-13,5.17-22.44,11.19S56.81,136,54,141.86s-2,9.67-2.31,10.9a25.92,25.92,0,0,0-.69,5.11c.08.71.47.58.85.73s.09.83.09.83c1.07,2.62,2.76,3.09,12.23,2.1s17.67-1.65,17.67-1.65c4.49,1,14.21-.66,14.21-.66s1,.87,5.82,4,11.67,4.85,14.75,4,3.71-3.26.66-5.39a14.68,14.68,0,0,1-4-3.69l.22-.31s23.89-2.67,27.91-3.49,16.54-2.87,25.05-6.21,14.21-5.09,17.6-6.67,9.21-2,21.13-.41A160.74,160.74,0,0,1,225,144.77a12.08,12.08,0,0,0,3.11.45c2,2.26,6.64,6.71,6.64,6.71a12.13,12.13,0,0,1,1.92,1.16c1.82,1.17,8.42,3.9,9.53,3s-1.53-3.33-3.15-5.19"/><path class="cls-4" d="M185.37,196.95s-2.7-1.33-.66-2.94,5.28-3,6.42-3.79,4-2.93,8.59-6.19,11.78-5,11.88-5a39.75,39.75,0,0,1,4.2-4.52,1.29,1.29,0,0,1,.65-.19s2.36-2.49,4-2.75a4.08,4.08,0,0,1,2-.71c.9,0,.73.1.73.1l.63.25a.35.35,0,0,1,.47.19,1.58,1.58,0,0,0,.31.52s.18.2.43.45a3.28,3.28,0,0,1,.56.63c.11.2.28.22.19.43a1.75,1.75,0,0,0,0,1.13c.16.35.35.68.31.87s0,.06,0,.39.24.3.23.62.08.25,0,.57.58.22,1.2-.41a20.21,20.21,0,0,1,3.74-2.79c1-.49,2-.8,2.27-.92s.68-.08.88-.17a4.87,4.87,0,0,1,.75-.31c.2,0,.19-.12.31,0s.38.11.51.2.15,0,.4.25a3.74,3.74,0,0,0,.89.5,2,2,0,0,1,.38.21l.38.33.22,0s.32.34.42.43.3.16.49.32.54.3.7.43.17,0,.45.27.23.46.7.67a5.16,5.16,0,0,1,1.19.56.57.57,0,0,0,.62.31,9.3,9.3,0,0,0,2.53-2,23.1,23.1,0,0,1,2.31-2.1,1,1,0,0,1,1.06,0,7.2,7.2,0,0,1,.62.57s.2-.09.36-.75a23.9,23.9,0,0,1,1.31-2.92c.15-.29.37-.63.71-.14a3.12,3.12,0,0,1,.66,1.29c0,.37.12.29.16.5a1.38,1.38,0,0,1,0,.46c0,.26.18.51.09.74a1,1,0,0,0-.05.67c.06.2.74,1.18.67,1.39s-.1,1.19-.25,1.25-.12.51-.12.69.16.26.16.55a3.66,3.66,0,0,0,0,.85c.06.25.2.19,0,.36s-.57,0-.57.35.25,1.06.15,1.37,0,.49,0,.82.16.56.24,1a1.27,1.27,0,0,1-.51,1.42c-.59.32-1.19-.05-1.46-.13s-1,0-1.3-.26-.64.5-.52,1.15.28,1.07.37,1.48a1.8,1.8,0,0,1,.07.54c0,.3.26.11.11.5s-.17.2-.18.63.24.42.06.82.06.93-.43.87a25.58,25.58,0,0,1-2.68-.95,5.18,5.18,0,0,0-1.19-.61l-1.3.92-.23,1.09a1.22,1.22,0,0,0,0,.26.83.83,0,0,0-.15.46l0,.31a1,1,0,0,0,0,.58c.1.25.18.16.06.35a2.1,2.1,0,0,1-.23.31s.27.4.14.55a1.3,1.3,0,0,0-.17.27.49.49,0,0,0-.08.31c0,.12.08.37-.06.54a1.38,1.38,0,0,0-.23.36c0,.1,0,.24-.09.42s0,.29-.16.37a.4.4,0,0,1-.17.08s-.25.35-.11.63.09.47-.07.45-.26,0-.28.12-.27.57-.15.73.07.24,0,.33a.29.29,0,0,1-.27.1c-.16,0,.06.34,0,.57s-.08.4-.19.47a.76.76,0,0,0-.17.32.48.48,0,0,0-.09.42c.06.25.21.31,0,.38s-.32,0-.39.23.09.11-.08.35-.1.3-.23.38-.08.09-.22.27.18.39-.19.24a2.58,2.58,0,0,0-.88-.14s.09.32-.36.16-1.43-.6-1.43-.6-.15.36-.77,0-1.27-.81-1.27-.81a1.08,1.08,0,0,1-.49-.08c-.3-.11-2.92-2.14-2.92-2.14l-.15-.09a44.4,44.4,0,0,1-9.25,2.78,59.87,59.87,0,0,1-7.61,1.18l.17.29.38,0,0,.2a5.87,5.87,0,0,0,.55.54.87.87,0,0,1,.34.49.9.9,0,0,0,.45.51,1.32,1.32,0,0,1,.52.37c0,.1-.13.15-.07.26s.08.23.21.29-.12.28-.12.28-.15.15,0,.18a.58.58,0,0,1,.32.15,2.25,2.25,0,0,0-.65.2,1.7,1.7,0,0,0-.42.32,5.58,5.58,0,0,0,1.06,0l.36,0,.57-.18a3.89,3.89,0,0,1-3,.41,1.75,1.75,0,0,0-.68-.16,2.19,2.19,0,0,0-.77.18c-.23.15.25.39.57.52a2.44,2.44,0,0,0,1,0l-.71.41s-3.43-1.49-3.69-1.62-1,.25-1.58.1a4.21,4.21,0,0,0-1.06-.23,3.08,3.08,0,0,1-.83-.09c-.52-.12-.38-.09-.62-.25a9.86,9.86,0,0,1-.69-2.17,73.11,73.11,0,0,1-8.82-.25c-4.21-.43-9-1.25-9.69-1.36a2.92,2.92,0,0,1-1.1-.36s-.4.31-.16.68a2.42,2.42,0,0,0,1.56,1c.57,0-.89.54-1.85-.7s.09-1.37.09-1.37-.74-.39-.88-.88-.06-.55-.15-.71a3.86,3.86,0,0,1-.21-.69"/><path class="cls-5" d="M266.12,152.67c-.1-1-1.29-1.81-2.65-1.91a50.83,50.83,0,0,1-5.08-.69c-1.44-.28-3.52-.78-4.63-1.11a26.89,26.89,0,0,1-3.87-1.56,16,16,0,0,1-2.41-1.45,1.91,1.91,0,0,1-.58-1,.66.66,0,0,1,.23-.61,1.81,1.81,0,0,1,.81-.09,19.08,19.08,0,0,0,2.39-.16c1-.11,1.76-.31,1.65-.44a7,7,0,0,0-1.4-.83L248.8,142l-1-.54a.76.76,0,0,1-.42-.71,2.53,2.53,0,0,1,.38-.89,10.44,10.44,0,0,1,2.21-1.51c1-.59,3.37-1.73,5.16-2.55l8-3.61c2.62-1.17,5.89-2.51,7.26-3s3.61-1.14,5-1.48a47.22,47.22,0,0,1,5.62-.93,10.2,10.2,0,0,0,5-2,42.77,42.77,0,0,1,3.89-3.06c1.11-.75,2.22-1.2,2.46-1a15.09,15.09,0,0,1,1.57,2.14,13,13,0,0,0,2.21,2.62,16.73,16.73,0,0,1,1.79,1.65,8.07,8.07,0,0,1,1.17,1.91,15.87,15.87,0,0,1,.58,1.58,3,3,0,0,0,1,1.12,9.32,9.32,0,0,1,1.6,1.68c.4.56,1.18,1.79,1.75,2.74a27.48,27.48,0,0,1,1.67,3.36,15.43,15.43,0,0,1,.83,3c.1.74.18,1.8.19,2.34a1.61,1.61,0,0,0,1,1.35c.54.2,1.32.5,1.74.68a2.27,2.27,0,0,1,1,.71,1.46,1.46,0,0,1,.19.62.64.64,0,0,1-.34.39,4.35,4.35,0,0,1-1.3.22,10.88,10.88,0,0,1-1.72-.07,1.12,1.12,0,0,0-1.09.72c-.19.46-.6,1.44-.92,2.18a4.72,4.72,0,0,0,.14,3.13c.4,1,1,2.59,1.25,3.59a28.89,28.89,0,0,1,.74,3.21c.11.77.21,1.71.23,2.08a2.31,2.31,0,0,1-.2,1,1.83,1.83,0,0,1-.69.58,2,2,0,0,1-1.22,0,16.33,16.33,0,0,1-2-.94,5.67,5.67,0,0,1-1.65-1.27,5.91,5.91,0,0,1-.61-1.46c-.13-.48-.35-.8-.48-.7a3.25,3.25,0,0,0-.57,1.17,30.12,30.12,0,0,0-.65,4c-.18,1.66-.74,4.91-1.23,7.2a31.6,31.6,0,0,1-1.68,5.62,6,6,0,0,1-1.26,1.75c-.27.17-.91-.13-1.41-.65a44.44,44.44,0,0,1-3.43-5.27c-1.38-2.38-3.06-4.6-3.73-4.93a6.05,6.05,0,0,1-1.85-1.45,13,13,0,0,0-2.51-2.09,16.37,16.37,0,0,1-2.64-2.15,15,15,0,0,0-1.08-1.17,13.5,13.5,0,0,1-1.27-1.72c-.52-.79.22-2.08,1.66-2.85a40.38,40.38,0,0,1,4.48-2.08,29.12,29.12,0,0,1,3.37-1,10.4,10.4,0,0,0,2.45-.81,6.53,6.53,0,0,0,1.53-1.17,10.35,10.35,0,0,0,1-1.4,6,6,0,0,0,.53-1.18,2.31,2.31,0,0,0-.34-1.26,1.54,1.54,0,0,0-1.34-.76c-.49,0-2.4,1.85-3.85,2s-2.25-1.28-2.19-1a2.43,2.43,0,0,1,.09.74.75.75,0,0,1-.31.51,2.18,2.18,0,0,1-1.08.1,23.29,23.29,0,0,1-2.76-.64,13.06,13.06,0,0,0-4.34-.27c-1.32.16-2.31.59-2.21.95a2.88,2.88,0,0,1,0,1.36,7.73,7.73,0,0,1-.82,1.61c-.33.5-.94,1.5-1.35,2.21a14,14,0,0,1-1.18,1.77,6.69,6.69,0,0,1-1.27,1,2.89,2.89,0,0,1-1.2.44c-.21,0-.58-.61-.84-1.3s-.62-1.82-.79-2.49a24.9,24.9,0,0,1-.5-3"/><path class="cls-6" d="M407.43,119.66l0,0c.15.16.13.14,0,0"/><path class="cls-1" d="M317.68,102.25c-30.54,4.85-60.23,11.16-89,10.68-26.17.13-56.39-5.54-64.31-16.19l-.2-.28q-.23-.32-.43-.65l-.06-.1a10.66,10.66,0,0,1-.54-1.05c-.1-.23-.2-.46-.28-.69a19.34,19.34,0,0,1-.88-6.71c-.07-1.44-5.37-3.6-9.42-1.57S142.5,94,138,97.91a29.21,29.21,0,0,1-7.81,5.21C118,105.37,105.53,108.22,95.5,113a133.51,133.51,0,0,0-12.89,6.52c4-2.07,7.52-3.42,13.72-6.1,10-4.32,22.41-6.72,34.48-8.5a28.53,28.53,0,0,0,7.86-4.89c4.56-3.76,10.69-9.76,14.73-11.62s3.48,2.32,3.5,3.75-.26,5.94,2.11,9.51,7.24,5.24,7.24,5.24a168.8,168.8,0,0,1,20,5.32,114.91,114.91,0,0,1,12.39,5,228.6,228.6,0,0,0,30.09.79c28.78-.65,58-8.11,88.26-14.15a208.64,208.64,0,0,1,39.83-4.16,209.43,209.43,0,0,0-39.14,2.62"/><path class="cls-7" d="M429,183.28a71.2,71.2,0,0,1-7.14-6.2c-1.79-2-4.75-3.87-5.18-4.42a15.74,15.74,0,0,0-2.38-2.53,20.82,20.82,0,0,1-5.26-4.81c-1.66-2.45,2.47-8.71,2.29-9s3.58-7.08,5.23-18.54,1.57-14.39,3.21-18.25,1.46-3.7,1.44-4.31,1-1.58,1.34-2.59a15.81,15.81,0,0,1,1.39-2.25c.2-.51,2.06-4.74,2.21-6.13,0,0,.32-6.41-3.45-7.38a10.49,10.49,0,0,0-5.11.25l-.7.2-.17.05-.49.16-.19.07-.4.15-.18.07-.33.14-.16.06-.28.12-.12.05-.22.1-.08,0-.15.08h0l-.06,0a13.75,13.75,0,0,1-5.56,1.82c-3.24.33-5.8-.34-13.8,6.42q-.74.63-1.41,1.27l-.48.48c-.27.27-.54.54-.8.81s-.37.42-.55.63-.41.46-.6.69-.38.48-.57.72l-.48.61c-.2.27-.39.54-.58.81l-.38.53c-.21.3-.41.61-.61.91l-.29.44c-.23.35-.44.7-.66,1.05l-.18.29-.78,1.29h0c-2.25,3.83-4.29,7.7-7.67,11.27l-.7.73c-6,6.32-7.63,7.71-8,7.7a28.86,28.86,0,0,0-6.9,2c-2.43,1.17-4.86,1.93-8.14.48s-7.19-1.5-15.19-5.7-13.08-5.32-13.84-3.5a2,2,0,0,0,.91,1.58c.9.55-.18,3.52-.14,3.78a5.25,5.25,0,0,1,.67,2.3c.19,1.82-.25,3,.15,3.4s2.19,2.91,1.58,3.89-1.49,1.58-.38,2.11a17.76,17.76,0,0,1,4.17,2.82c1.5,1.36-.95,2,.05,2.73s4,.87,6.22.48,6.61-1.15,9.58,0,4.47,3.05,7.33,3.4c0,0-6.77,10.62-11,28.26s-15.18,24.55-21.51,26.68c0,0-5.1,1.62-6.71,1s-7.5-4.61-10.44-6-11.52-4-10.44-1.25,3.11,2.63,3.11,2.63.84,1.59,0,2.4-.16,1.32.86,1.25,1.82.76,1,1.91-.44,1.23-.43,1.77-.5,2.74-1.63,3,.21,1.47,0,2.06a8.74,8.74,0,0,1-2.73,2.44c-1.07.64.78,3.11,2.21,3.45a14.57,14.57,0,0,0,7.42-.71c2.52-1,5.58-3.13,8.34-3.93s.66,2.23-.34,2.44-1.7.1-1.58.91.37,1.59,0,2.06-1.56,2-2.34,2.73-1.44,3.35-.77,4.21c0,0,6.42-1.53,10.64-4.6a28.8,28.8,0,0,1,10-4.5c2.1-.64,2.54-1.4,2.54-1.4s7.94,1.47,20.88-2.29,24.46-13.27,36.12-27.4c0,0,6.64-8.62,8.87-12.22s4-5.35,4.36-5.41,0-1,2.21,0,3.1.94,5.18,3,2.46,3.79,3,4.45a2.27,2.27,0,0,0,1.51.83c.28,0-.39-.08.49-.25a5.58,5.58,0,0,1,3.48,1.22c1,.73,1.22.43,2,.39a6.07,6.07,0,0,1,2.68-.08,6.06,6.06,0,0,0,2.95-.11,5.51,5.51,0,0,1,1.59-.17,2.37,2.37,0,0,0,1.32-.14c.25-.14.63.45,1.1.08s1.11-.67-.68-2.11"/><path class="cls-1" d="M386.74,110.47c.46.1,1.45.3,1.88.41,0,0-1.69,2.05-8.51,15.91a71.6,71.6,0,0,0,6.16-9.54h0l.78-1.29.18-.29.66-1.05.29-.44c.2-.3.4-.61.61-.91l.38-.54c.19-.27.38-.54.58-.8l.48-.61c.19-.24.37-.48.57-.72s.4-.46.6-.69.36-.42.55-.62.53-.54.8-.81l.47-.48c.45-.43.91-.85,1.41-1.26,8-6.76,10.56-6.09,13.8-6.42A13.76,13.76,0,0,0,414,98.48l.06,0,0,0,.16-.08.08,0,.22-.1.12-.05.28-.12.16-.06.33-.13.18-.07.4-.15.19-.07.48-.16.17-.05.7-.2a19.43,19.43,0,0,0-3.95,1.16,13.75,13.75,0,0,1-5.66,1.46c-3.25.12-5.43-.65-13.84,5.58a29.52,29.52,0,0,0-4,3.76c-1-.21-2.52-.55-3.63-.75-16.23-3.9-35.66-4.2-55.23-1.67,19.83-1.82,39.37-.78,55.44,3.78"/><path class="cls-8" d="M68.72,145.23c-.89.09-2.39,1.63-2.05.29s1-1.53,2.68-1.33a3.07,3.07,0,0,1,2.3,2,8.42,8.42,0,0,0-2.92-.92"/></svg>