<svg xmlns="http://www.w3.org/2000/svg" xmlns:xlink="http://www.w3.org/1999/xlink" viewBox="0 0 476.84 276.84"><defs><style>.cls-1{fill:#2c5081;}.cls-2{fill:#151423;}.cls-3{fill:url(#Ikke-navngivet_forløb_19);}.cls-4{fill:#fff;}.cls-5{fill:#1d1d1b;}.cls-6{fill:url(#Ikke-navngivet_forløb_20);}.cls-7{fill:url(#Ikke-navngivet_forløb_22);}.cls-8{fill:url(#Ikke-navngivet_forløb_15);}</style><linearGradient id="Ikke-navngivet_forløb_19" x1="198.85" y1="60.76" x2="198.85" y2="16.85" gradientUnits="userSpaceOnUse"><stop offset="0" stop-color="#2c5081"/><stop offset="0.16" stop-color="#263f67"/><stop offset="0.38" stop-color="#1e2c49"/><stop offset="0.59" stop-color="#191f34"/><stop offset="0.8" stop-color="#161727"/><stop offset="1" stop-color="#151423"/></linearGradient><linearGradient id="Ikke-navngivet_forløb_20" x1="42.7" y1="163.74" x2="31.83" y2="174.6" gradientUnits="userSpaceOnUse"><stop offset="0" stop-color="#2c5081"/><stop offset="0.17" stop-color="#2a4b79"/><stop offset="0.44" stop-color="#253d63"/><stop offset="0.78" stop-color="#1c263f"/><stop offset="1" stop-color="#151423"/></linearGradient><linearGradient id="Ikke-navngivet_forløb_22" x1="96.17" y1="135.87" x2="470.71" y2="135.87" gradientUnits="userSpaceOnUse"><stop offset="0" stop-color="#fff"/><stop offset="0.12" stop-color="#f2f2f2"/><stop offset="0.31" stop-color="#e4e4e4"/><stop offset="0.55" stop-color="#dcdcdc"/><stop offset="1" stop-color="#dadada"/></linearGradient><linearGradient id="Ikke-navngivet_forløb_15" x1="314.9" y1="138" x2="314.9" y2="268.01" gradientUnits="userSpaceOnUse"><stop offset="0" stop-color="#2c5081"/><stop offset="0.09" stop-color="#263f66"/><stop offset="0.2" stop-color="#1f2f4e"/><stop offset="0.33" stop-color="#1b233b"/><stop offset="0.47" stop-color="#171b2d"/><stop offset="0.65" stop-color="#161525"/><stop offset="1" stop-color="#151423"/></linearGradient></defs><title>Aktiv 2</title><g id="Lag_2" data-name="Lag 2"><g id="Lag_1-2" data-name="Lag 1"><path class="cls-1" d="M474.05,58.48a55.53,55.53,0,0,1-3.34,12.24C400,203.84,182.16,190.9,96.17,180.07c-5.48-1.76-8.5-2.88-8.5-2.88C76,174.28,67.15,174,60.74,174.65h0a45.54,45.54,0,0,0-6.07,1h0a22.54,22.54,0,0,0-7.43,3L28.49,158q1-3.12,2.16-6.1c24.8-64,98.75-79.76,98.75-79.76,53.52-22.3,119.87-24,119.87-24,45.72.56,92-24.53,92-24.53,86.42-60.77,117.64,15,117.64,15C486.47,44.13,474.05,58.48,474.05,58.48Z"/><path class="cls-2" d="M337.35,230.88s35.77-15.13,44.72-34.32c0,0-9.19-27.05,8.92-37.48l.09-5s-26.19,13.82-44,20.21l-2.3,6.09s-2.83,11.21-5,13.93c0,0,9.81-3.12,7,7.53Z"/><path class="cls-3" d="M249,48.4s-63.38-42.94-93.6-28.63c0,0-15.9,5.23,1.14,17.95,0,0,17.54,15.39,7.75,23C164.3,60.76,210.84,48.85,249,48.4Z"/><path class="cls-2" d="M69.64,239.19l-4.17-8.52c-5.35-10.31-14.86-.8-14.86-.8a11.08,11.08,0,0,1-13.08-6.34c-.59,8.32-5.35,8.72-5.35,8.72C5,232.85,19.3,269.7,19.3,269.7c2.58,6.15-.59,7.14-.59,7.14-8.53-3.17-16.06-24.33-16.06-24.33-10.35-26.93,13-58,13-58a38.3,38.3,0,0,0,9-18.44c.2-1.07.33-2.08.42-3,.24-1.59.5-3.1.77-4.52q.51-2.68,1.06-5a29.74,29.74,0,0,0,1.66-5.6l3.52,3.9L47.22,178.7c-2.36,1.48-3.52,3.16-3.86,4.89-1.39,7,10.62,15,10.62,15,9.71-1.38,18.63,10.11,18.63,10.11C77.56,221,69.64,239.19,69.64,239.19Z"/><path class="cls-2" d="M410,70.93s14.52-.35,15.57-8c0,0,8-12.77-10.32-18.55,0,0-17-14.17-35.69,5.42,0,0-15.75,18.2-12.42,28.7,0,0,1.75,14.7,14.87,7.7Z"/><path class="cls-4" d="M415.29,44.34s-22,.08-12.09,19.38c0,0,5.45,11.58,22.41-.83C425.61,62.89,433.35,49.49,415.29,44.34Z"/><path class="cls-2" d="M474.05,58.48s-15.79,10.82-26,5.23a26,26,0,0,0,10.8-25.07S485,42.45,474.05,58.48Z"/><path class="cls-2" d="M470.21,60.75s-12.59,20.3-22.12,3C448.1,63.72,459.72,65.93,470.21,60.75Z"/><path class="cls-5" d="M415.3,44.34s17.5,3.75,10.35,18.55C425.65,62.89,401.84,61.81,415.3,44.34Z"/><path class="cls-6" d="M54.66,175.7h0a22.54,22.54,0,0,0-7.43,3c-2.36,1.48-3.52,3.16-3.86,4.89l-11.58-9.91-6-5.14q.51-2.68,1.06-5a29.74,29.74,0,0,0,1.66-5.6q1-3.12,2.16-6.1l1.53,1.52Z"/><path class="cls-7" d="M470.71,70.72C457.92,103.46,417,134.85,417,134.85c-36.67,35.54-123.24,58.6-123.24,58.6-81.85,19.83-170.26-4.64-197.55-13.38C182.16,190.9,400,203.84,470.71,70.72Z"/><path class="cls-8" d="M361.41,144.12s.82-19.34-37,10.7c0,0-26.31,17.16-30.65,38.63,0,0-20.39,72.5-25.32,74.56,0,0,34.16-2.06,54.33-34.57,0,0,20.58-42.39,21.81-51.86C344.53,181.58,356.47,147,361.41,144.12Z"/></g></g></svg>