<svg xmlns="http://www.w3.org/2000/svg" viewBox="0 0 333.03 177.43"><defs><style>.cls-1{fill:#2c5081;}.cls-2{fill:#0a1119;}.cls-3{fill:#131421;}.cls-4{fill:#151423;}.cls-5{fill:#fff;}.cls-6{fill:#1d1d1b;}</style></defs><title>marsvin5</title><g id="Layer_2" data-name="Layer 2"><g id="Lag_1" data-name="Lag 1"><path class="cls-1" d="M89.83,25.48S61.65-17.92,19.38,8.57c0,0-25.08-12.12-18,27.9,0,0,11.43,28.75,43.62,62.85,0,0,30.12,32.63,51.86,43.29,0,0,59.46,38.91,117.19,25.31,0,0,40.48-3.65,79-53.75,0,0,7.35-12.63,8.29-17.34,0,0,3.2-9.48,5.79-10l-1.23-8.75-14.17,6.16s-27.1,13.55-54.08,8.25c0,0-44.26-4.37-59.89-19.29,0,0-50.4-34.42-62-34.77C115.69,38.45,93.12,29.8,89.83,25.48Z"/><path class="cls-2" d="M57.46,140.35s6.79-20.75-5.66-34c0,0,27.84,26.25,37.13,31.67,0,0,6.28,8-1.78,11.65,0,0,3.52,15.87,12.83,24.68,0,0,4.54,5-4.77,2.23C95.2,176.62,68.3,168,57.46,140.35Z"/><path class="cls-3" d="M291.66,84.26s6.17-4.36,2.77-14.7c0,0-15-16.58-12-27.34a37.07,37.07,0,0,1,14.73-24.08s-1.84,20,4.82,23.09c0,0,16.49,7.45,14.7,17.49,0,0,9.74-5.66,9-22.06,0,0-2.19-18.28-3.68-20.67,0,0,15.5,21,9.74,33.29,0,0-7.54,24-24.69,37.58l-1.23-8.75Z"/><path class="cls-3" d="M115.71,51.2s-4.11,26,58.62,34.92c0,0-12.33-26.16,14.93-13.56,0,0,6.57-2.05-7.53-14.52C181.72,58,161.59,34.08,115.71,51.2Z"/><ellipse class="cls-3" cx="64.23" cy="24.19" rx="2.58" ry="3.4" transform="translate(-4.4 24.34) rotate(-20.76)"/><path class="cls-4" d="M26.18,35.28s16.94,9.56,20.15,27.91c0,0-17.88,7.57-30.47-20.63C15.87,42.57,10.85,30.36,26.18,35.28Z"/><path class="cls-4" d="M19.38,8.57S4.32,19.35,10.1,31c0,0-8.63,5.88-10-4.71C.09,26.25-2.48.7,19.38,8.57Z"/><path class="cls-5" d="M15.2,42.31s6.51,8.36,10.57,3S21.16,34,21.16,34"/><path class="cls-6" d="M21.16,34s3.69,9-6,8.33C15.2,42.31,11.6,32.37,21.16,34Z"/></g></g></svg>