<svg id="Lag_1" data-name="Lag 1" xmlns="http://www.w3.org/2000/svg" xmlns:xlink="http://www.w3.org/1999/xlink" viewBox="0 0 542.59 268"><defs><style>.cls-1{fill:#2c5183;}.cls-2{fill:#151423;}.cls-3{fill:url(#Ikke-navngivet_forløb_5);}.cls-4{fill:#fff;}.cls-5{fill:#1e1e1c;}.cls-6{fill:url(#Ikke-navngivet_forløb_6);}.cls-7{fill:url(#Ikke-navngivet_forløb_3);}.cls-8{fill:url(#Ikke-navngivet_forløb_4);}</style><linearGradient id="Ikke-navngivet_forløb_5" x1="264.58" y1="179.99" x2="264.58" y2="223.86" gradientTransform="matrix(1, 0, 0, -1, 0, 240.7)" gradientUnits="userSpaceOnUse"><stop offset="0" stop-color="#2c5183"/><stop offset="0.16" stop-color="#263f67"/><stop offset="0.38" stop-color="#1f2d49"/><stop offset="0.59" stop-color="#191f34"/><stop offset="0.8" stop-color="#171727"/><stop offset="1" stop-color="#151423"/></linearGradient><linearGradient id="Ikke-navngivet_forløb_6" x1="226.55" y1="355.94" x2="226.55" y2="435.81" gradientTransform="matrix(0.27, 0.96, 0.96, -0.27, -392.23, 52.29)" gradientUnits="userSpaceOnUse"><stop offset="0" stop-color="#151423"/><stop offset="0.46" stop-color="#151525"/><stop offset="0.62" stop-color="#181b2d"/><stop offset="0.74" stop-color="#1a2137"/><stop offset="0.83" stop-color="#1f2d48"/><stop offset="0.91" stop-color="#243a5e"/><stop offset="0.98" stop-color="#2b4b79"/><stop offset="1" stop-color="#2c5183"/></linearGradient><linearGradient id="Ikke-navngivet_forløb_3" x1="136.9" y1="105.13" x2="536.46" y2="105.13" gradientTransform="matrix(1, 0, 0, -1, 0, 240.7)" gradientUnits="userSpaceOnUse"><stop offset="0" stop-color="#fff"/><stop offset="0.12" stop-color="#f2f2f2"/><stop offset="0.31" stop-color="#e4e4e3"/><stop offset="0.55" stop-color="#dcdcdc"/><stop offset="1" stop-color="#dadada"/></linearGradient><linearGradient id="Ikke-navngivet_forløb_4" x1="380.68" y1="102.72" x2="380.68" y2="-27.3" gradientTransform="matrix(1, 0, 0, -1, 0, 240.7)" gradientUnits="userSpaceOnUse"><stop offset="0" stop-color="#2c5183"/><stop offset="0.09" stop-color="#263f66"/><stop offset="0.2" stop-color="#20304e"/><stop offset="0.33" stop-color="#1b233b"/><stop offset="0.47" stop-color="#181c2e"/><stop offset="0.65" stop-color="#161525"/><stop offset="1" stop-color="#151423"/></linearGradient></defs><title>marsvin4</title><path class="cls-1" d="M539.8,58.47a55.35,55.35,0,0,1-3.34,12.24C465.76,203.81,248,190.89,162,180.06h-.06c-2.28-.18-68.72-5.79-80.77-25.27,0,0,23.65-78.45,133.28-89.68,48.93-15.65,100.61-17,100.61-17,45.72.56,92-24.53,92-24.53,86.42-60.77,117.64,15,117.64,15C552.22,44.12,539.8,58.47,539.8,58.47Z" transform="translate(0 0)"/><path class="cls-2" d="M403.1,230.87s35.77-15.13,44.72-34.32c0,0-9.19-27.05,8.92-37.48l.09-5s-26.19,13.82-44,20.21l-2.3,6.09s-2.83,11.21-5,13.93c0,0,9.81-3.12,7,7.53Z" transform="translate(0 0)"/><path class="cls-3" d="M314.75,48.39s-63.38-42.94-93.6-28.63c0,0-15.9,5.23,1.14,17.95,0,0,17.54,15.39,7.75,23C230.05,60.75,276.59,48.84,314.75,48.39Z" transform="translate(0 0)"/><path class="cls-2" d="M475.75,70.92s14.52-.35,15.57-8c0,0,8-12.77-10.32-18.55,0,0-17-14.17-35.69,5.42,0,0-15.75,18.2-12.42,28.7,0,0,1.75,14.7,14.87,7.7Z" transform="translate(0 0)"/><path class="cls-4" d="M481,44.33S459,44.41,469,63.71c0,0,5.45,11.58,22.41-.83C491.36,62.88,499.1,49.48,481,44.33Z" transform="translate(0 0)"/><path class="cls-2" d="M539.8,58.47S524,69.29,513.8,63.7a26,26,0,0,0,10.8-25.07S550.75,42.44,539.8,58.47Z" transform="translate(0 0)"/><path class="cls-2" d="M536,60.74s-12.59,20.3-22.12,3C513.85,63.71,525.47,65.92,536,60.74Z" transform="translate(0 0)"/><path class="cls-5" d="M481.05,44.33s17.5,3.75,10.35,18.55C491.4,62.88,467.59,61.8,481.05,44.33Z" transform="translate(0 0)"/><path class="cls-6" d="M57.32,126.35s-41-12.54-57.32,8.12c0,0,23.26-9.34,21.54-.69s5.56-7.85,11.33,22.62c0,0,4.72,7.34,17.82,7.08,0,0-16.25,10.42-13.88,22.35s-2.21,16-16.27,22.5c0,0,21.36,12.34,38.31,2.59s32-47.72,32-47.72l-5.11-18.42S68.1,129.56,57.32,126.35Z" transform="translate(0 0)"/><path class="cls-7" d="M536.46,70.71c-12.79,32.74-53.71,64.13-53.71,64.13-36.67,35.54-123.24,58.6-123.24,58.6-81.85,19.83-195.32-7.85-222.61-16.59C222.85,187.68,465.75,203.83,536.46,70.71Z" transform="translate(0 0)"/><path class="cls-8" d="M427.16,144.11s.82-19.34-37,10.7c0,0-26.31,17.16-30.65,38.63,0,0-20.39,72.5-25.32,74.56,0,0,34.16-2.06,54.33-34.57,0,0,20.58-42.39,21.81-51.86C410.28,181.57,422.22,147,427.16,144.11Z" transform="translate(0 0)"/></svg>