<svg xmlns="http://www.w3.org/2000/svg" viewBox="0 0 316.23 316.23"><defs><style>.cls-1{fill:none;stroke:#141414;stroke-miterlimit:10;stroke-width:10px;}.cls-2{fill:#141414;}</style></defs><title>Aktiv 3</title><g id="Lag_2" data-name="Lag 2"><g id="Lag_1-2" data-name="Lag 1"><circle class="cls-1" cx="158.11" cy="158.11" r="153.11"/><path class="cls-2" d="M239.23,207.42,213,181.18a13.68,13.68,0,0,0-19.28.36L180.5,194.76l-2.61-1.45c-8.34-4.62-19.77-11-31.79-23s-18.4-23.49-23-31.84c-.49-.89-1-1.74-1.42-2.55l8.87-8.86,4.36-4.37a13.66,13.66,0,0,0,.35-19.28L109,77.19a13.66,13.66,0,0,0-19.28.36L82.33,85l.2.2a42.69,42.69,0,0,0-6.09,10.74,44.51,44.51,0,0,0-2.71,10.9c-3.46,28.71,9.66,55,45.27,90.56,49.22,49.22,88.89,45.5,90.6,45.32A44.33,44.33,0,0,0,220.52,240a42.65,42.65,0,0,0,10.71-6.07l.16.14,7.49-7.33A13.69,13.69,0,0,0,239.23,207.42Z"/></g></g></svg>