<svg xmlns="http://www.w3.org/2000/svg" viewBox="0 0 305.22 116.03"><defs><style>.cls-1{fill:#6f6a67;}.cls-10,.cls-2{fill:none;stroke-linecap:round;}.cls-10,.cls-2,.cls-3{stroke:#1d1d1b;stroke-miterlimit:10;}.cls-2{stroke-width:0.5px;}.cls-3,.cls-6{fill:#1d1d1b;}.cls-4{fill:#9d9d9c;}.cls-5{fill:#878787;}.cls-7{fill:#fff;}.cls-8{fill:#575756;}.cls-9{fill:#3c3c3b;}.cls-10{stroke-width:0.3px;}.cls-11{fill:#c6c6c6;}</style></defs><title>seal</title><g id="Layer_2" data-name="Layer 2"><g id="Lag_1" data-name="Lag 1"><path class="cls-1" d="M289,62.39S284.85,74,267.51,73.74h-.89c-3.87-.06-19.57-.06-34.3,3.64-17,4.26-47.5,29-96.56,19.16-24.53-4.9-48.89-20.92-63-33.64a51.25,51.25,0,0,0-8-5.88C61.12,61,44.92,78,32,75.8,17.37,73.33,4.89,66.56.57,56.39s17-13.78,25.75-12.79,25.19.14,26.84-4.13S41.35,35.06,33.74,32.7,6.8,25.48,6.3,19.95,6.71,4.11,32.68.26C54.4-3,66.21,24.82,69.51,34c6.93-2.14,16.56-10.47,22.85-13.66C116.11,8.28,131.62,3.93,153.67,1.21c20.81-2.57,32.76-.72,41,2.74,26.8,11.21,34,9.51,34,9.51a41.47,41.47,0,0,1,18.07-6C284,3.77,284,36.82,284,36.82s10.24,3.43,10.86,10.6S295.48,57.71,289,62.39Z"/><path class="cls-1" d="M267.52,73.75h0Z"/><path class="cls-2" d="M285.91,48.94s4.39,7.52,0,13c-2.81,3.48-9.64,4.61-15.58,3.86"/><path class="cls-2" d="M288.49,62.89a5.9,5.9,0,0,1-3.57,0"/><path class="cls-3" d="M278.69,49.55s6.81-1.26,7.36-.47a9.08,9.08,0,0,1,2.76-4.28A20.16,20.16,0,0,0,278.69,49.55Z"/><path class="cls-4" d="M285.9,52.43c-.3-.8-1.29-2.13-2.15-2.09-3.1.13-15.11,1-18.85,6.38-6.38,9.1,15.13,9.53,18.85,5.16C286,59.2,286.59,54.31,285.9,52.43Z"/><path class="cls-4" d="M287.86,48.94s2.57-5.4,5.89-4.93c0,0,5.24,10.26-2.95,16.94-.83.68-3.07,1.41-3,.76s.79-1.71,1-2.66a9.89,9.89,0,0,0,.3-3.88C288.7,52.42,287.86,48.94,287.86,48.94Z"/><path class="cls-4" d="M287.6,64.89a2.9,2.9,0,0,0-2.13-.31c-1.26.28-5.28,2.17-4,2.79a10.58,10.58,0,0,0,3.35.74A21.22,21.22,0,0,0,287.6,64.89Z"/><path class="cls-5" d="M260.38,44.48a7.53,7.53,0,0,0,4.72-1.28c3.27-2.25,8.54-7,2.41-11-8.38-5.51-15.23-.78-15.76,4C251.48,38.47,250.65,43.91,260.38,44.48Z"/><path class="cls-6" d="M262.47,43.48a7,7,0,0,0,4.09-1.95c2.61-2.6,6.63-7.8.36-10.46-8.56-3.64-14,1.82-13.72,6.23C253.36,39.49,253.5,44.58,262.47,43.48Z"/><path class="cls-7" d="M258.08,40.63s-1-.81-1.62.18a.83.83,0,0,0,.59,1.34s1.07,0,1.15-.81C258.25,40.9,258.3,40.84,258.08,40.63Z"/><path class="cls-7" d="M255.94,33.31a3.1,3.1,0,0,0-1.69,2.48c-.25,1.9-.29,3.52.17,4.06s.9.89,1.28.61.66-.76.49-1a5.27,5.27,0,0,1-.88-1.56,4.86,4.86,0,0,1-.18-2.47C255.32,34.76,256.81,33.44,255.94,33.31Z"/><path class="cls-4" d="M104.88,29.56a3.94,3.94,0,0,1-2.55.23c-2-.51-5.46-1.87-3.19-5,3.1-4.23,7.32-3.16,8.44-.93C108.15,25,109.55,27.5,104.88,29.56Z"/><path class="cls-8" d="M104.63,29.8a3.65,3.65,0,0,1-2.36-.21c-1.75-.8-4.67-2.61-2.09-5.06,3.53-3.34,7.2-1.67,7.86.55C108.37,26.18,109.23,28.7,104.63,29.8Z"/><path class="cls-9" d="M269.43,43.8s7.84-6.37,14.56-7l0-.72S275,38.09,269.43,43.8Z"/><path class="cls-5" d="M284,36.08s-3,.5-4.71-.41-4.75-3.3-4.46-5.3a6.28,6.28,0,0,1,1.45-2.69c.78-1,1.81-2.43,3.86-2.21a2.38,2.38,0,0,1,.48.1,7.13,7.13,0,0,1,1.26.44A22.57,22.57,0,0,1,284,36.08Z"/><path class="cls-6" d="M283.94,35.41s-3.28.54-5-.25-4.71-2.91-4.41-4.7A5.59,5.59,0,0,1,276,28c.79-.89,1.82-2.27,3.87-2.09a7,7,0,0,1,.79.09,8.27,8.27,0,0,1,1.37.39A21.14,21.14,0,0,1,283.94,35.41Z"/><path class="cls-7" d="M281.8,34.24s.57-.92,1.3-.32a.68.68,0,0,1-.07,1.2s-.81.34-1.12-.3C281.75,34.5,281.69,34.47,281.8,34.24Z"/><path class="cls-9" d="M281.74,60.54s.2-.33.46-.12a.24.24,0,0,1,0,.43s-.29.12-.4-.11S281.7,60.62,281.74,60.54Z"/><path class="cls-9" d="M282.45,58s.2-.33.46-.12a.24.24,0,0,1,0,.43s-.29.12-.4-.11S282.41,58.07,282.45,58Z"/><path class="cls-9" d="M281.33,55.62s.2-.33.46-.12a.24.24,0,0,1,0,.43s-.29.12-.4-.11S281.29,55.7,281.33,55.62Z"/><path class="cls-9" d="M283.72,53.49s.2-.33.46-.12a.24.24,0,0,1,0,.43s-.29.12-.4-.11S283.68,53.57,283.72,53.49Z"/><path class="cls-9" d="M278.1,61.89s.2-.33.46-.12a.24.24,0,0,1,0,.43s-.29.12-.4-.11S278.06,62,278.1,61.89Z"/><path class="cls-9" d="M279.76,59.18s.2-.33.46-.12a.24.24,0,0,1,0,.43s-.29.12-.4-.11S279.72,59.26,279.76,59.18Z"/><path class="cls-9" d="M274.67,62.81s.2-.33.46-.12a.24.24,0,0,1,0,.43s-.29.12-.4-.11S274.63,62.89,274.67,62.81Z"/><path class="cls-9" d="M275.77,60s.2-.33.46-.12a.24.24,0,0,1,0,.43s-.29.12-.4-.11S275.73,60.09,275.77,60Z"/><path class="cls-9" d="M277.36,57.18s.2-.33.46-.12a.24.24,0,0,1,0,.43s-.29.12-.4-.11S277.32,57.26,277.36,57.18Z"/><path class="cls-9" d="M289.83,59.74s.2-.33.46-.12a.24.24,0,0,1,0,.43s-.29.12-.4-.11S289.79,59.82,289.83,59.74Z"/><path class="cls-9" d="M290.43,56.64s.2-.33.46-.12a.24.24,0,0,1,0,.43s-.29.12-.4-.11S290.4,56.73,290.43,56.64Z"/><path class="cls-9" d="M292.74,57.18s.2-.33.46-.12a.24.24,0,0,1,0,.43s-.29.12-.4-.11S292.7,57.26,292.74,57.18Z"/><path class="cls-9" d="M289.72,53.76s.2-.33.46-.12a.24.24,0,0,1,0,.43s-.29.12-.4-.11S289.68,53.84,289.72,53.76Z"/><path class="cls-9" d="M291.74,54.71s.2-.33.46-.12a.24.24,0,0,1,0,.43s-.29.12-.4-.11S291.7,54.8,291.74,54.71Z"/><path class="cls-9" d="M290.32,51.25s.2-.33.46-.12a.24.24,0,0,1,0,.43s-.29.12-.4-.11S290.29,51.34,290.32,51.25Z"/><path class="cls-9" d="M289.41,48.41s.2-.33.46-.12a.24.24,0,0,1,0,.43s-.29.12-.4-.11S289.38,48.49,289.41,48.41Z"/><path class="cls-9" d="M279.05,54.76s.2-.33.46-.12a.24.24,0,0,1,0,.43s-.29.12-.4-.11S279,54.85,279.05,54.76Z"/><path class="cls-9" d="M275.06,55.59s.2-.33.46-.12a.24.24,0,0,1,0,.43s-.29.12-.4-.11S275,55.67,275.06,55.59Z"/><path class="cls-9" d="M276.66,52.76s.2-.33.46-.12a.24.24,0,0,1,0,.43s-.29.12-.4-.11S276.62,52.85,276.66,52.76Z"/><path class="cls-9" d="M281,51.9s.2-.33.46-.12a.24.24,0,0,1,0,.43s-.29.12-.4-.11S281,52,281,51.9Z"/><path class="cls-9" d="M292.89,52.5s.2-.33.46-.12a.24.24,0,0,1,0,.43s-.29.12-.4-.11S292.85,52.58,292.89,52.5Z"/><path class="cls-9" d="M292.44,50s.2-.33.46-.12a.24.24,0,0,1,0,.43s-.29.12-.4-.11S292.4,50.07,292.44,50Z"/><path class="cls-9" d="M272.21,54s.2-.33.46-.12a.24.24,0,0,1,0,.43s-.29.12-.4-.11S272.17,54.11,272.21,54Z"/><path class="cls-9" d="M272.91,58.1s.2-.33.46-.12a.24.24,0,0,1,0,.43s-.29.12-.4-.11S272.87,58.19,272.91,58.1Z"/><path class="cls-10" d="M271.07,60.62"/><path class="cls-9" d="M294.39,53.2s.2-.33.46-.12a.24.24,0,0,1,0,.43s-.29.12-.4-.11S294.35,53.29,294.39,53.2Z"/><path class="cls-9" d="M294.4,50.26s.2-.33.46-.12a.24.24,0,0,1,0,.43s-.29.12-.4-.11S294.36,50.34,294.4,50.26Z"/><path class="cls-9" d="M293.79,47.94s.2-.33.46-.12a.24.24,0,0,1,0,.43s-.29.12-.4-.11S293.75,48,293.79,47.94Z"/><path class="cls-9" d="M293.73,46.16s.2-.33.46-.12a.24.24,0,0,1,0,.43s-.29.12-.4-.11S293.69,46.24,293.73,46.16Z"/><path class="cls-9" d="M292,46.8s.2-.33.46-.12a.24.24,0,0,1,0,.43s-.29.12-.4-.11S292,46.88,292,46.8Z"/><path class="cls-10" d="M292.33,46.8s2-5,9.55-5"/><path class="cls-10" d="M294.07,48s6.51-4.19,11,4.33"/><path class="cls-10" d="M294.07,46.18s5.11-4.27,11-1.88"/><path class="cls-10" d="M294.69,50.34s3.76-3.37,10,0"/><path class="cls-10" d="M294.69,53.3a8.87,8.87,0,0,1,8.59,7.92"/><path class="cls-9" d="M273.38,61.05s.2-.33.46-.12a.24.24,0,0,1,0,.43s-.29.12-.4-.11S273.34,61.14,273.38,61.05Z"/><path class="cls-9" d="M268,60.93s.2-.33.46-.12a.24.24,0,0,1,0,.43s-.29.12-.4-.11S268,61,268,60.93Z"/><path class="cls-9" d="M270.79,58.82s.2-.33.46-.12a.24.24,0,0,1,0,.43s-.29.12-.4-.11S270.75,58.91,270.79,58.82Z"/><path class="cls-9" d="M268,56.74s.2-.33.46-.12a.24.24,0,0,1,0,.43s-.29.12-.4-.11S268,56.82,268,56.74Z"/><path class="cls-9" d="M270.05,56.47s.2-.33.46-.12a.24.24,0,0,1,0,.43s-.29.12-.4-.11S270,56.55,270.05,56.47Z"/><path class="cls-9" d="M265,58.39s.2-.33.46-.12a.24.24,0,0,1,0,.43s-.29.12-.4-.11S265,58.47,265,58.39Z"/><path class="cls-10" d="M270.34,56.46s-7.72-6.43-15.18-.78"/><path class="cls-10" d="M268.23,56.78s-10.48-2.43-13,8.45"/><path class="cls-10" d="M271.07,58.87s-7.72-.82-9.73,6.76"/><path class="cls-10" d="M272.5,54.11s-8-5.06-12.8,1.33"/><path class="cls-10" d="M273.66,61s-6.92.76-8.46,9.19"/><path class="cls-10" d="M268.23,61S259.58,59,256,69.53"/><path class="cls-10" d="M265.2,58.45s-4.83-3-10,1.63"/><path class="cls-11" d="M64.77,57s43.69,15.6,91.1,20.17S238.67,76,238.67,76s-4.41.53-23.27,8.67c-19,8.21-40.84,17.55-70.86,13.5S93.34,82.53,64.77,57Z"/><path class="cls-1" d="M165.93,58.23s-33.79,8.68-38.21,22.23,1,33.81,10,35.44,16.45-14.76,14.16-20.38-7-8.41-5.81-14.62S173.47,61,172.7,58.19,165.93,58.23,165.93,58.23Z"/><path class="cls-8" d="M53.15,65.19s-9.81,8.93-19.85,8.12-21.72-5-27.91-15,7.69-12.93,12.91-12.88,30.3,1.69,33.89-.88,3.44-6.74-.18-9.19-12.81-3.91-15.6-4.29-20.84-5.11-24.25-9.28-4.36-8.88,2.47-13,19.53-9,29.7-4.06,11.89,9.68,11.89,9.68-8.84-8.73-15.28-9.6S27,4.68,25.81,5.61,36,3.94,46.08,14.46c0,0-13.48-10-25.57-6.51a9.2,9.2,0,0,0-2.64,1.59c-.69.8,10.86,1.17,15.18,5.66,0,0-16-5.74-19.72-2.89A1.15,1.15,0,0,0,12.9,14c.7,1,4.21,2.39,6.78,2.59,0,0-4.37.45-6.75-.43s-2,2.87-.47,4.07,4.65,4.91,22,8.84,19,3.56,22.56,10.8S42.67,48.35,34.69,47.6a133.75,133.75,0,0,0-16.49-.39c-3.35,0-11.16,2.17-11.85,4.58S11.73,55,16.79,53.92c0,0-4.78,1.92-8.82,1.3,0,0-2.34.11-.54,2.14s12,3.75,20.49.49c0,0-2.29,2.36-11,3.31s-3.38,4,2.69,4.24,14.8.75,21.79-3.82a23.34,23.34,0,0,1-12.3,5.63c-8,1.28-8,1.28-7,2.27S32,72.27,37.25,71.61,53.15,65.19,53.15,65.19Z"/><path class="cls-8" d="M144.08,85.57c1.75,2.47,6.26,10.62,6.24,12.57s-2.23,9.81-7.24,14.26c-2.79,2.48-5.74,3.75-9.14-.6s-7.51-14.14-6.28-21.9C128.81,82.7,130,80,130,80s-1.71,8.45-1.76,13,1.85,10.68,2.59,11.43-2-6.9,4.37-14.7c0,0-5.74,10.12-2.31,18.15a6.38,6.38,0,0,0,1.32,1.68c.61.41-.12-7.57,2.61-10.93,0,0-2.6,11.47-.32,13.82a.8.8,0,0,0,1.18.16c.62-.56,1.29-3.1,1.21-4.89a13.58,13.58,0,0,1,.28,4.68c-.4,1.71,1.77.83,2.84,0,1.36-1.09,4.87-6,6.26-14.24.56-3.29-3.26-9-5.77-14"/><path class="cls-4" d="M173.54,7.7a2.42,2.42,0,0,1-1.57.14c-1.24-.31-3.36-1.15-2-3.05,1.91-2.6,4.5-1.94,5.2-.58C175.55,4.89,176.41,6.43,173.54,7.7Z"/><path class="cls-8" d="M173,7.47a2.14,2.14,0,0,1-1.35-.08c-1-.41-2.64-1.37-1.11-2.77,2.08-1.92,4.16-1,4.5.17C175.25,5.4,175.7,6.78,173,7.47Z"/><path class="cls-4" d="M202.72,20.76a3.94,3.94,0,0,1-2.55.23c-2-.51-5.46-1.87-3.19-5,3.1-4.23,7.32-3.16,8.44-.93C206,16.2,207.39,18.71,202.72,20.76Z"/><path class="cls-8" d="M202,21.51a3.65,3.65,0,0,1-2.36-.21c-1.75-.8-4.67-2.61-2.09-5.06,3.53-3.34,7.2-1.67,7.86.55C205.78,17.89,206.64,20.41,202,21.51Z"/><path class="cls-4" d="M120.9,23.17a3.94,3.94,0,0,1,0-2.56c.7-2,2.38-5.26,5.25-2.7,3.92,3.49,2.45,7.59.13,8.5C125.14,26.86,122.51,28,120.9,23.17Z"/><path class="cls-8" d="M121.42,22.9a3.65,3.65,0,0,1,.43-2.33c1-1.67,3-4.4,5.23-1.59,3,3.83,1,7.33-1.3,7.77C124.67,27,122.07,27.58,121.42,22.9Z"/><path class="cls-4" d="M185.13,8.2a3.94,3.94,0,0,1,1.93,1.68c1,1.81,2.42,5.24-1.39,5.74-5.2.67-7.34-3.12-6.5-5.47C179.57,9,180.42,6.24,185.13,8.2Z"/><path class="cls-8" d="M185.48,8.21A3.65,3.65,0,0,1,187,10.06c.63,1.82,1.33,5.18-2.22,5-4.86-.25-6.18-4.06-5-6.07C180.28,8,181.51,5.64,185.48,8.21Z"/><path class="cls-4" d="M147.9,8.38a3.94,3.94,0,0,1,2.31-1.1c2.06-.22,5.77-.13,4.71,3.56-1.45,5-5.78,5.49-7.6,3.79C146.41,13.79,144.23,11.92,147.9,8.38Z"/><path class="cls-8" d="M148.06,8.07a3.65,3.65,0,0,1,2.29-.62c1.92.14,5.28.84,3.7,4-2.16,4.36-6.18,4-7.56,2.19C145.8,12.76,144.12,10.69,148.06,8.07Z"/><path class="cls-4" d="M129.55,14a2.42,2.42,0,0,1-1.57.14c-1.24-.31-3.36-1.15-2-3.05,1.91-2.6,4.5-1.94,5.2-.58C131.56,11.18,132.42,12.73,129.55,14Z"/><path class="cls-8" d="M129.06,13.77a2.14,2.14,0,0,1-1.35-.08c-1-.41-2.64-1.37-1.11-2.77,2.08-1.92,4.16-1,4.5.17C131.27,11.69,131.72,13.08,129.06,13.77Z"/><path class="cls-4" d="M195.5,11.54a2.42,2.42,0,0,1-1.57.14c-1.24-.31-3.36-1.15-2-3.05,1.91-2.6,4.5-1.94,5.2-.58C197.5,8.73,198.37,10.28,195.5,11.54Z"/><path class="cls-8" d="M195,11.32a2.14,2.14,0,0,1-1.35-.08c-1-.41-2.64-1.37-1.11-2.77,2.08-1.92,4.16-1,4.5.17C197.21,9.24,197.66,10.63,195,11.32Z"/><path class="cls-4" d="M91.82,32.14a2.42,2.42,0,0,1-1.57.14c-1.24-.31-3.36-1.15-2-3.05,1.91-2.6,4.5-1.94,5.2-.58C93.82,29.33,94.69,30.88,91.82,32.14Z"/><path class="cls-8" d="M91.32,31.92A2.14,2.14,0,0,1,90,31.84c-1-.41-2.64-1.37-1.11-2.77,2.08-1.92,4.16-1,4.5.17C93.53,29.84,94,31.23,91.32,31.92Z"/><path class="cls-4" d="M132.58,31.92a2.42,2.42,0,0,1-1.57.14c-1.24-.31-3.36-1.15-2-3.05,1.91-2.6,4.5-1.94,5.2-.58C134.59,29.12,135.45,30.66,132.58,31.92Z"/><path class="cls-8" d="M132.09,31.7a2.14,2.14,0,0,1-1.35-.08c-1-.41-2.64-1.37-1.11-2.77,2.08-1.92,4.16-1,4.5.17C134.29,29.63,134.74,31,132.09,31.7Z"/><path class="cls-4" d="M239.63,15.38a2.42,2.42,0,0,1-1.57.14c-1.24-.31-3.36-1.15-2-3.05,1.91-2.6,4.5-1.94,5.2-.58C241.64,12.57,242.5,14.12,239.63,15.38Z"/><path class="cls-8" d="M239.14,15.16a2.14,2.14,0,0,1-1.35-.08c-1-.41-2.64-1.37-1.11-2.77,2.08-1.92,4.16-1,4.5.17C241.35,13.08,241.8,14.47,239.14,15.16Z"/><path class="cls-4" d="M254.63,11.69a1.76,1.76,0,0,1,.63-1c.74-.56,2.18-1.38,2.63.28.6,2.27-1,3.44-2,3.21C255.3,14.11,254,13.9,254.63,11.69Z"/><path class="cls-8" d="M254.92,11.77a1.38,1.38,0,0,1,.58-.65c.61-.33,1.76-.77,1.84.56.12,1.82-1.16,2.52-1.91,2.19C255.07,13.72,254.19,13.39,254.92,11.77Z"/><path class="cls-4" d="M108.38,29.52a1.76,1.76,0,0,1,.63-1c.74-.56,2.18-1.38,2.63.28.6,2.27-1,3.44-2,3.21C109.06,31.94,107.79,31.72,108.38,29.52Z"/><path class="cls-8" d="M108.68,29.6a1.38,1.38,0,0,1,.58-.65c.61-.33,1.76-.77,1.84.56.12,1.82-1.16,2.52-1.91,2.19C108.83,31.54,108,31.21,108.68,29.6Z"/><path class="cls-4" d="M185.64,21.6a1.76,1.76,0,0,1-.81-.8c-.41-.84-.93-2.41.78-2.52,2.34-.16,3.19,1.6,2.75,2.62C188.14,21.4,187.69,22.6,185.64,21.6Z"/><path class="cls-8" d="M185.77,21.32a1.38,1.38,0,0,1-.52-.7c-.21-.66-.42-1.87.91-1.7,1.81.23,2.25,1.62,1.79,2.29C187.71,21.55,187.22,22.35,185.77,21.32Z"/><path class="cls-4" d="M154.61,17.53a1.76,1.76,0,0,1,.63-1c.74-.56,2.18-1.38,2.63.28.6,2.27-1,3.44-2,3.21C155.28,19.95,154,19.73,154.61,17.53Z"/><path class="cls-8" d="M154.9,17.61a1.38,1.38,0,0,1,.58-.65c.61-.33,1.76-.77,1.84.56.12,1.82-1.16,2.52-1.91,2.19C155.05,19.56,154.18,19.22,154.9,17.61Z"/><path class="cls-4" d="M230.87,21.61a1.76,1.76,0,0,1-.86-.76c-.45-.81-1.06-2.36.64-2.56,2.33-.28,3.27,1.42,2.89,2.47C233.36,21.28,233,22.51,230.87,21.61Z"/><path class="cls-8" d="M231,21.33a1.38,1.38,0,0,1-.56-.67c-.24-.65-.52-1.85.81-1.75,1.82.14,2.33,1.5,1.91,2.2C232.93,21.45,232.48,22.28,231,21.33Z"/><path class="cls-4" d="M214.36,18.85a2.42,2.42,0,0,1-1.57.14c-1.24-.31-3.36-1.15-2-3.05,1.91-2.6,4.5-1.94,5.2-.58C216.37,16,217.23,17.59,214.36,18.85Z"/><path class="cls-8" d="M214.07,18.6a1.72,1.72,0,0,1-1,0c-.75-.27-2-.9-.76-2,1.68-1.48,3.25-.92,3.47,0C215.85,17,216.15,18,214.07,18.6Z"/><path class="cls-8" d="M212.72,16a.71.71,0,0,1-.43,0c-.31-.11-.82-.37-.31-.82.7-.61,1.35-.38,1.44,0C213.45,15.39,213.58,15.8,212.72,16Z"/><path class="cls-4" d="M134.89,19.42a2.42,2.42,0,0,1-1.57.14c-1.24-.31-3.36-1.15-2-3.05,1.91-2.6,4.5-1.94,5.2-.58C136.9,16.61,137.76,18.16,134.89,19.42Z"/><path class="cls-8" d="M134.6,19.17a1.72,1.72,0,0,1-1,0c-.75-.27-2-.9-.76-2,1.68-1.48,3.25-.92,3.47,0C136.38,17.57,136.68,18.57,134.6,19.17Z"/><path class="cls-8" d="M133.25,16.62a.71.71,0,0,1-.43,0c-.31-.11-.82-.37-.31-.82.7-.61,1.35-.38,1.44,0C134,16,134.11,16.37,133.25,16.62Z"/><path class="cls-4" d="M109.22,20.77a2.42,2.42,0,0,1-.55-1.47c0-1.28.22-3.54,2.42-2.7,3,1.15,3.07,3.83,1.93,4.86C112.46,22,111.2,23.2,109.22,20.77Z"/><path class="cls-8" d="M109.38,20.43a1.72,1.72,0,0,1-.27-1c.06-.79.35-2.15,1.71-1.26,1.87,1.23,1.75,2.89,1,3.33C111.39,21.72,110.51,22.27,109.38,20.43Z"/><path class="cls-8" d="M111.48,18.44a.71.71,0,0,1-.11-.42c0-.33.14-.89.71-.52.77.51.72,1.2.4,1.38C112.32,19,112,19.2,111.48,18.44Z"/><path class="cls-4" d="M171.73,12a2.42,2.42,0,0,1,1.56-.16c1.24.3,3.37,1.11,2,3-1.88,2.62-4.48,2-5.19.63C169.75,14.81,168.87,13.27,171.73,12Z"/><path class="cls-8" d="M172,12.23a1.72,1.72,0,0,1,1,0c.75.26,2,.88.78,2-1.66,1.49-3.24,1-3.47.08C170.25,13.84,169.94,12.85,172,12.23Z"/><path class="cls-8" d="M173.4,14.77a.71.71,0,0,1,.43,0c.31.11.83.37.32.82-.69.62-1.34.39-1.44,0C172.67,15.43,172.54,15,173.4,14.77Z"/><path class="cls-4" d="M245.35,8.61a3.5,3.5,0,0,1,2-1.12c1.82-.32,5.11-.48,4.4,2.86-1,4.56-4.78,5.24-6.51,3.84C244.37,13.51,242.32,12,245.35,8.61Z"/><path class="cls-8" d="M245.47,8.32a3.25,3.25,0,0,1,2-.69c1.71,0,4.74.41,3.54,3.34-1.64,4-5.23,4-6.57,2.42C243.76,12.62,242.14,10.89,245.47,8.32Z"/><path class="cls-8" d="M212.78,24a1.74,1.74,0,0,1,1.07-.37c.92,0,2.54.22,1.9,1.79-.88,2.15-2.81,2.14-3.53,1.3C211.86,26.31,211,25.39,212.78,24Z"/><path class="cls-4" d="M162.53,12.6a1.73,1.73,0,0,1-.29-1.08c.07-.91.4-2.5,1.91-1.75,2.06,1,1.91,2.93,1,3.58C164.74,13.68,163.76,14.47,162.53,12.6Z"/><path class="cls-8" d="M263.56,15.81a1.74,1.74,0,0,1-.25-1.1c.1-.91.5-2.5,2-1.69,2,1.11,1.82,3,.91,3.65C265.75,17,264.74,17.73,263.56,15.81Z"/><path class="cls-8" d="M240.68,22.7a1.74,1.74,0,0,1,1.07-.37c.92,0,2.54.22,1.9,1.79-.88,2.15-2.81,2.14-3.53,1.3C239.76,25,238.89,24.08,240.68,22.7Z"/><path class="cls-8" d="M158.43,4a1.74,1.74,0,0,1,1.07-.37c.92,0,2.54.22,1.9,1.79-.88,2.15-2.81,2.14-3.53,1.3C157.51,6.33,156.64,5.4,158.43,4Z"/><path class="cls-8" d="M140,22.2a1.74,1.74,0,0,1,1.07-.37c.92,0,2.54.22,1.9,1.79-.88,2.15-2.81,2.14-3.53,1.3C139.05,24.51,138.18,23.58,140,22.2Z"/><path class="cls-4" d="M139.78,6.22a1.73,1.73,0,0,1,1-.55c.9-.16,2.52-.24,2.17,1.41-.48,2.25-2.36,2.58-3.21,1.89C139.3,8.63,138.28,7.88,139.78,6.22Z"/><path class="cls-4" d="M81.56,33.24a1.73,1.73,0,0,1,1-.55c.9-.16,2.52-.24,2.17,1.41-.48,2.25-2.36,2.58-3.21,1.89C81.08,35.65,80.07,34.9,81.56,33.24Z"/><path class="cls-4" d="M242.59,16.65a1.73,1.73,0,0,1,1-.55c.9-.16,2.52-.24,2.17,1.41-.48,2.25-2.36,2.58-3.21,1.89C242.1,19.06,241.09,18.31,242.59,16.65Z"/><path class="cls-4" d="M192.94,25.55a1.73,1.73,0,0,1,.52-1c.67-.62,2-1.56,2.59,0,.81,2.15-.59,3.45-1.68,3.33C193.83,27.85,192.57,27.76,192.94,25.55Z"/><path class="cls-4" d="M146.64,28.67a1.73,1.73,0,0,1,1-.55c.9-.16,2.52-.24,2.17,1.41-.48,2.25-2.36,2.58-3.21,1.89C146.15,31.08,145.14,30.33,146.64,28.67Z"/><path class="cls-4" d="M197.07,77.77a1.73,1.73,0,0,1,1.11-.17c.89.17,2.44.67,1.53,2.09-1.24,1.94-3.12,1.58-3.67.64C195.77,79.85,195.09,78.79,197.07,77.77Z"/><path class="cls-4" d="M84,62.53a1.73,1.73,0,0,1,1.11-.17c.89.17,2.44.67,1.53,2.09C85.38,66.39,83.5,66,83,65.09,82.68,64.62,82,63.56,84,62.53Z"/><path class="cls-4" d="M189.23,84a2.14,2.14,0,0,1-.24-1.37c.19-1.11.77-3,2.54-1.94,2.42,1.49,2,3.82.88,4.52C191.84,85.6,190.55,86.47,189.23,84Z"/><path class="cls-4" d="M87.65,67.09A1.32,1.32,0,0,1,88.5,67c.68.13,1.86.51,1.17,1.59-.95,1.48-2.38,1.21-2.8.49C86.66,68.68,86.14,67.87,87.65,67.09Z"/><path class="cls-8" d="M185.43,76.63a1.74,1.74,0,0,1,1.07-.37c.92,0,2.54.22,1.9,1.79-.88,2.15-2.81,2.14-3.53,1.3C184.51,78.94,183.65,78,185.43,76.63Z"/><path class="cls-8" d="M77.66,60.9a1.74,1.74,0,0,1,1.07-.37c.92,0,2.54.22,1.9,1.79-.88,2.15-2.81,2.14-3.53,1.3C76.74,63.21,75.88,62.28,77.66,60.9Z"/><path class="cls-4" d="M262,24.24a1.76,1.76,0,0,1,.47-.72c.45-.38,1.29-.89,1.2.55-.12,2-1.07,2.76-1.55,2.44C261.88,26.34,261.32,26,262,24.24Z"/><path class="cls-4" d="M274.49,21.33a1.76,1.76,0,0,0-.74-.44c-.57-.14-1.55-.23-.84,1,1,1.72,2.18,2,2.46,1.51C275.52,23.17,275.88,22.63,274.49,21.33Z"/></g></g></svg>