<svg xmlns="http://www.w3.org/2000/svg" viewBox="0 0 108.72 274.51"><defs><style>.cls-1{fill:#6f6a67;}.cls-2{fill:#c6c6c6;}.cls-3{fill:#878787;}.cls-4,.cls-6{fill:#1d1d1b;}.cls-5{fill:#fff;}.cls-11,.cls-6,.cls-7{stroke:#1d1d1b;stroke-miterlimit:10;}.cls-11,.cls-7{fill:none;}.cls-8{fill:#9d9d9c;}.cls-9{fill:#575756;}.cls-10{fill:#3c3c3b;}.cls-11{stroke-width:0.3px;}</style></defs><title>seal3</title><g id="Layer_2" data-name="Layer 2"><g id="Lag_1" data-name="Lag 1"><path class="cls-1" d="M51.51,228.78s.94-4.68,2.52-4.68,2,1.13,2.71,4.73,3.53,33.37,4.28,41c.58,5.82,6.76,5.41,10.37,0s13.3-13.08,5.41-54.56c0,0-.9-2.25.23-10.14s14.82-20.06,18.43-35.62c0,0,9.92-6.83,12.17-21.45s2-41.22-10.6-64.44-2-31.11-8.28-53.43S66-.22,54.71,0,26.22,8.36,19.54,29.54c-5,15.79,2.1,25,1.22,37.23C19.7,81.47,10,88.83,5.94,100.55S-8.26,150.37,13.38,168c0,0,7,21.19,11.72,30.21s7.73,11,6.16,18.26S21.34,252,38,270.54,48.87,237.47,51.51,228.78Z"/><path class="cls-2" d="M19.15,122.34s1.08-30,9.63-42.81,32.86-21.8,49.64-1.24,18.66,70.06.81,105.49-49.79,12.13-55.75-15.46S19.15,122.34,19.15,122.34Z"/><path class="cls-3" d="M37.33,27.89a6.11,6.11,0,0,0,3.82-1c2.65-1.83,6.92-5.67,1.95-8.94-6.79-4.47-12.34-.63-12.77,3.21C30.12,23,29.45,27.43,37.33,27.89Z"/><path class="cls-4" d="M39,27.09a5.66,5.66,0,0,0,3.32-1.58c2.11-2.1,5.37-6.32.29-8.47-6.94-2.95-11.36,1.47-11.12,5C31.64,23.85,31.75,28,39,27.09Z"/><path class="cls-5" d="M35.47,24.78s-.84-.66-1.31.15A.67.67,0,0,0,34.64,26s.87,0,.93-.66C35.61,25,35.65,25,35.47,24.78Z"/><path class="cls-5" d="M33.74,18.85a2.51,2.51,0,0,0-1.37,2c-.21,1.54-.23,2.85.13,3.29s.73.72,1,.49.54-.61.39-.85a4.27,4.27,0,0,1-.71-1.26,3.94,3.94,0,0,1-.14-2C33.23,20,34.44,19,33.74,18.85Z"/><path class="cls-3" d="M71.16,27.63a6.11,6.11,0,0,1-3.82-1c-2.65-1.83-6.92-5.67-1.95-8.94,6.79-4.47,12.34-.63,12.77,3.21C78.38,22.77,79.05,27.17,71.16,27.63Z"/><path class="cls-4" d="M69.47,26.83a5.66,5.66,0,0,1-3.32-1.58c-2.11-2.1-5.37-6.32-.29-8.47,6.94-2.95,11.36,1.47,11.12,5C76.86,23.59,76.74,27.72,69.47,26.83Z"/><path class="cls-5" d="M73,24.51s.84-.66,1.31.15a.67.67,0,0,1-.48,1.08s-.87,0-.93-.66C72.89,24.73,72.85,24.69,73,24.51Z"/><path class="cls-5" d="M74.76,18.58a2.51,2.51,0,0,1,1.37,2c.21,1.54.23,2.85-.13,3.29s-.73.72-1,.49-.54-.61-.39-.85a4.27,4.27,0,0,0,.71-1.26,3.94,3.94,0,0,0,.14-2C75.27,19.76,74.06,18.69,74.76,18.58Z"/><path class="cls-6" d="M49,23.22a12.31,12.31,0,0,1,10.93,0s-5.47,2-5.47,4.69C54.43,27.91,54.38,24.37,49,23.22Z"/><path class="cls-7" d="M54.43,27.91V41.62S45,48.1,36.34,46.33"/><path class="cls-7" d="M54.43,41.62s9.47,6.49,18.09,4.71"/><path class="cls-2" d="M53,32.94s-.22-5.3-1.63-6c-2.5-1.22-7.64-1.6-14.4,6.13s.52,12.06,6,11C53.09,42.26,53.15,39.43,53,32.94Z"/><path class="cls-2" d="M56,32.94s.22-5.3,1.63-6c2.5-1.22,7.64-1.6,14.4,6.13s-.59,12.06-6.08,11C55.87,42.26,55.88,39.43,56,32.94Z"/><path class="cls-2" d="M51.39,44.59s3.59-2,6.28,0,2.56,4,1.15,4.44-7.44,1-9,0S49.08,46.39,51.39,44.59Z"/><path class="cls-8" d="M23.37,174.33a2.18,2.18,0,0,1,1.4-.22c1.13.21,3.08.85,1.93,2.63-1.57,2.44-3.94,2-4.63.8C21.72,177,20.87,175.63,23.37,174.33Z"/><path class="cls-8" d="M47.62,11.57a1.76,1.76,0,0,1,.62-.6c.53-.27,1.46-.58,1,.81-.56,1.89-1.67,2.45-2.06,2C47,13.59,46.56,13.14,47.62,11.57Z"/><path class="cls-8" d="M60.45,11.57a1.76,1.76,0,0,0-.62-.6c-.53-.27-1.46-.58-1,.81.56,1.89,1.67,2.45,2.06,2C61,13.59,61.51,13.14,60.45,11.57Z"/><path class="cls-9" d="M53.86,216a14.41,14.41,0,0,0,8.8-3.51c2.63-2.23,4.82-2.19,5.41,1.75s4.48,50-6.67,57.27c0,0-4.16-37-4.66-42.7S54,224.09,54,224.09a13.39,13.39,0,0,0-2.52,4.68c-.41,2.13-.23,39.78-3.82,42.75,0,0-10.27-14.72-6.42-55.93,0,0,1.09-5.43,5.91-2.07S53.86,216,53.86,216Z"/><path class="cls-9" d="M101.34,118.68s2.92,32-5.9,50.88l1.81-1.48S106.17,148.09,101.34,118.68Z"/><path class="cls-9" d="M7.52,117.08s-2.92,32,5.9,50.88l-1.81-1.56S2.69,146.49,7.52,117.08Z"/><path class="cls-10" d="M50.77,37.55s.2-.33.46-.12a.24.24,0,0,1,0,.43s-.29.12-.4-.11S50.74,37.63,50.77,37.55Z"/><path class="cls-10" d="M50.77,35.19s.2-.33.46-.12a.24.24,0,0,1,0,.43s-.29.12-.4-.11S50.74,35.28,50.77,35.19Z"/><path class="cls-10" d="M48.46,36.2s.2-.33.46-.12a.24.24,0,0,1,0,.43s-.29.12-.4-.11S48.42,36.29,48.46,36.2Z"/><path class="cls-10" d="M50.17,31.41s.2-.33.46-.12a.24.24,0,0,1,0,.43s-.29.12-.4-.11S50.13,31.49,50.17,31.41Z"/><path class="cls-10" d="M47.85,32.95s.2-.33.46-.12a.24.24,0,0,1,0,.43s-.29.12-.4-.11S47.81,33,47.85,32.95Z"/><path class="cls-10" d="M48,39.26s.2-.33.46-.12a.24.24,0,0,1,0,.43s-.29.12-.4-.11S47.93,39.35,48,39.26Z"/><path class="cls-10" d="M45.1,36.82s.2-.33.46-.12a.24.24,0,0,1,0,.43s-.29.12-.4-.11S45.06,36.9,45.1,36.82Z"/><path class="cls-10" d="M44.8,41.67s.2-.33.46-.12a.24.24,0,0,1,0,.43s-.29.12-.4-.11S44.76,41.75,44.8,41.67Z"/><path class="cls-10" d="M43.56,38.94s.2-.33.46-.12a.24.24,0,0,1,0,.43s-.29.12-.4-.11S43.52,39,43.56,38.94Z"/><path class="cls-10" d="M41.41,41.13s.2-.33.46-.12a.24.24,0,0,1,0,.43s-.29.12-.4-.11S41.37,41.22,41.41,41.13Z"/><path class="cls-10" d="M49.86,28.72s.2-.33.46-.12a.24.24,0,0,1,0,.43s-.29.12-.4-.11S49.83,28.8,49.86,28.72Z"/><path class="cls-10" d="M46.94,29.87s.2-.33.46-.12a.24.24,0,0,1,0,.43s-.29.12-.4-.11S46.9,30,46.94,29.87Z"/><path class="cls-10" d="M44.49,31.94s.2-.33.46-.12a.24.24,0,0,1,0,.43s-.29.12-.4-.11S44.46,32,44.49,31.94Z"/><path class="cls-10" d="M43.35,34.48s.2-.33.46-.12a.24.24,0,0,1,0,.43s-.29.12-.4-.11S43.31,34.57,43.35,34.48Z"/><path class="cls-10" d="M41,36.82s.2-.33.46-.12a.24.24,0,0,1,0,.43s-.29.12-.4-.11S41,36.9,41,36.82Z"/><path class="cls-10" d="M41.41,31.89s.2-.33.46-.12a.24.24,0,0,1,0,.43s-.29.12-.4-.11S41.37,32,41.41,31.89Z"/><path class="cls-11" d="M41.74,32s-2.4-2.85-8.64-1.82"/><path class="cls-11" d="M38.65,33.56s-3.7-4.7-15.31-1.59"/><path class="cls-11" d="M37.42,35.88s-7.89-4.39-14.08,3.73"/><path class="cls-11" d="M41,35.1s-6.56-3.61-12,3.39"/><path class="cls-11" d="M38.57,38.57s-7.14-1.16-11.73,7"/><path class="cls-11" d="M39.55,41.68s-7.39-1.06-9.69,7"/><path class="cls-11" d="M40.43,39.08S35,40.91,33.56,45.92"/><path class="cls-10" d="M41.41,31.89s.2-.33.46-.12a.24.24,0,0,1,0,.43s-.29.12-.4-.11S41.37,32,41.41,31.89Z"/><path class="cls-10" d="M43.65,29.07s.2-.33.46-.12a.24.24,0,0,1,0,.43s-.29.12-.4-.11S43.62,29.16,43.65,29.07Z"/><path class="cls-10" d="M58,29.34s.2-.33.46-.12a.24.24,0,0,1,0,.43s-.29.12-.4-.11S57.92,29.42,58,29.34Z"/><path class="cls-10" d="M60,27.67s.2-.33.46-.12a.24.24,0,0,1,0,.43s-.29.12-.4-.11S59.94,27.75,60,27.67Z"/><path class="cls-10" d="M62.66,29s.2-.33.46-.12a.24.24,0,0,1,0,.43s-.29.12-.4-.11S62.62,29.07,62.66,29Z"/><path class="cls-10" d="M57.65,32.1s.2-.33.46-.12a.24.24,0,0,1,0,.43s-.29.12-.4-.11S57.61,32.18,57.65,32.1Z"/><path class="cls-10" d="M63.43,32.95s.2-.33.46-.12a.24.24,0,0,1,0,.43s-.29.12-.4-.11S63.39,33,63.43,32.95Z"/><path class="cls-10" d="M58.17,35.54s.2-.33.46-.12a.24.24,0,0,1,0,.43s-.29.12-.4-.11S58.13,35.62,58.17,35.54Z"/><path class="cls-10" d="M60.28,31.14s.2-.33.46-.12a.24.24,0,0,1,0,.43s-.29.12-.4-.11S60.24,31.22,60.28,31.14Z"/><path class="cls-10" d="M66.58,40.77s.2-.33.46-.12a.24.24,0,0,1,0,.43s-.29.12-.4-.11S66.54,40.85,66.58,40.77Z"/><path class="cls-10" d="M58.86,38.86s.2-.33.46-.12a.24.24,0,0,1,0,.43s-.29.12-.4-.11S58.82,38.94,58.86,38.86Z"/><path class="cls-10" d="M61.68,38.14s.2-.33.46-.12a.24.24,0,0,1,0,.43s-.29.12-.4-.11S61.64,38.22,61.68,38.14Z"/><path class="cls-10" d="M62.29,40.77s.2-.33.46-.12a.24.24,0,0,1,0,.43s-.29.12-.4-.11S62.25,40.85,62.29,40.77Z"/><path class="cls-10" d="M65.1,38.94s.2-.33.46-.12a.24.24,0,0,1,0,.43s-.29.12-.4-.11S65.06,39,65.1,38.94Z"/><path class="cls-10" d="M62,35.19s.2-.33.46-.12a.24.24,0,0,1,0,.43s-.29.12-.4-.11S61.95,35.28,62,35.19Z"/><path class="cls-10" d="M65.41,29.87s.2-.33.46-.12a.24.24,0,0,1,0,.43s-.29.12-.4-.11S65.37,30,65.41,29.87Z"/><path class="cls-10" d="M66,36.07s.2-.33.46-.12a.24.24,0,0,1,0,.43s-.29.12-.4-.11S65.93,36.15,66,36.07Z"/><path class="cls-10" d="M66.27,33.22s.2-.33.46-.12a.24.24,0,0,1,0,.43s-.29.12-.4-.11S66.23,33.3,66.27,33.22Z"/><path class="cls-10" d="M68.79,37.55s.2-.33.46-.12a.24.24,0,0,1,0,.43s-.29.12-.4-.11S68.76,37.63,68.79,37.55Z"/><path class="cls-11" d="M41.74,32s-2.4-2.85-8.64-1.82"/><path class="cls-10" d="M39.26,41.67s.2-.33.46-.12a.24.24,0,0,1,0,.43s-.29.12-.4-.11S39.22,41.75,39.26,41.67Z"/><path class="cls-10" d="M40.15,39s.2-.33.46-.12a.24.24,0,0,1,0,.43s-.29.12-.4-.11S40.11,39.08,40.15,39Z"/><path class="cls-10" d="M38.29,38.57s.2-.33.46-.12a.24.24,0,0,1,0,.43s-.29.12-.4-.11S38.25,38.65,38.29,38.57Z"/><path class="cls-10" d="M37.14,35.8s.2-.33.46-.12a.24.24,0,0,1,0,.43s-.29.12-.4-.11S37.1,35.89,37.14,35.8Z"/><path class="cls-10" d="M40.64,35s.2-.33.46-.12a.24.24,0,0,1,0,.43s-.29.12-.4-.11S40.6,35.13,40.64,35Z"/><path class="cls-10" d="M38.29,33.48s.2-.33.46-.12a.24.24,0,0,1,0,.43s-.29.12-.4-.11S38.25,33.56,38.29,33.48Z"/><path class="cls-11" d="M38.65,33.56s-3.7-4.7-15.31-1.59"/><path class="cls-11" d="M37.42,35.88s-7.89-4.39-14.08,3.73"/><path class="cls-11" d="M41,35.1s-6.56-3.61-12,3.39"/><path class="cls-11" d="M38.57,38.57s-7.14-1.16-11.73,7"/><path class="cls-11" d="M39.55,41.68s-7.39-1.06-9.69,7"/><path class="cls-11" d="M40.43,39.08S35,40.91,33.56,45.92"/><path class="cls-10" d="M68.11,32.49s-.2-.33-.46-.12a.24.24,0,0,0,0,.43s.29.12.4-.11S68.15,32.58,68.11,32.49Z"/><path class="cls-10" d="M70.25,42.27s-.2-.33-.46-.12a.24.24,0,0,0,0,.43s.29.12.4-.11S70.29,42.35,70.25,42.27Z"/><path class="cls-10" d="M69.36,39.6s-.2-.33-.46-.12a.24.24,0,0,0,0,.43s.29.12.4-.11S69.4,39.68,69.36,39.6Z"/><path class="cls-10" d="M71.22,39s-.2-.33-.46-.12a.24.24,0,0,0,0,.43s.29.12.4-.11S71.26,39.1,71.22,39Z"/><path class="cls-10" d="M72.38,36.41s-.2-.33-.46-.12a.24.24,0,0,0,0,.43s.29.12.4-.11S72.42,36.49,72.38,36.41Z"/><path class="cls-10" d="M68.87,35.65s-.2-.33-.46-.12a.24.24,0,0,0,0,.43s.29.12.4-.11S68.91,35.73,68.87,35.65Z"/><path class="cls-10" d="M71.22,34.08s-.2-.33-.46-.12a.24.24,0,0,0,0,.43s.29.12.4-.11S71.26,34.16,71.22,34.08Z"/><path class="cls-10" d="M35.61,37.09s.2-.33.46-.12a.24.24,0,0,1,0,.43s-.29.12-.4-.11S35.58,37.17,35.61,37.09Z"/><path class="cls-10" d="M36.53,39.93s.2-.33.46-.12a.24.24,0,0,1,0,.43s-.29.12-.4-.11S36.49,40,36.53,39.93Z"/><path class="cls-10" d="M73.1,38s.2-.33.46-.12a.24.24,0,0,1,0,.43s-.29.12-.4-.11S73.06,38.07,73.1,38Z"/><path class="cls-10" d="M71.93,41s.2-.33.46-.12a.24.24,0,0,1,0,.43s-.29.12-.4-.11S71.89,41.05,71.93,41Z"/><path class="cls-11" d="M67.78,32.64s4-3.29,9.44,0"/><path class="cls-11" d="M70.87,34.16s3.7-4.7,15.31-1.59"/><path class="cls-11" d="M72.09,36.49S80,32.09,86.18,40.21"/><path class="cls-11" d="M68.54,35.7s6.56-3.61,12,3.39"/><path class="cls-11" d="M70.94,39s7-2.62,12.45,6.35"/><path class="cls-11" d="M70,42.28s7.39-1.06,9.69,7"/><path class="cls-11" d="M69.08,39.68a10.64,10.64,0,0,1,9.2,5.47"/><path class="cls-8" d="M87.54,151.82a2.18,2.18,0,0,1,.2-1.4c.53-1,1.71-2.7,3.09-1.07,1.87,2.22.75,4.35-.59,4.66C89.58,154.17,88,154.6,87.54,151.82Z"/><path class="cls-8" d="M25.72,81.46a2.18,2.18,0,0,1,1.4-.22c1.13.21,3.08.85,1.93,2.63-1.57,2.44-3.94,2-4.63.8C24.07,84.09,23.21,82.75,25.72,81.46Z"/><path class="cls-9" d="M23,85.64A1.74,1.74,0,0,1,24,86c.73.55,1.91,1.7.45,2.57-2,1.19-3.53,0-3.6-1.06C20.84,86.95,20.7,85.68,23,85.64Z"/><path class="cls-9" d="M90.43,144.24a1.74,1.74,0,0,1,1.07-.37c.92,0,2.54.22,1.9,1.79-.88,2.15-2.81,2.14-3.53,1.3C89.51,146.55,88.64,145.62,90.43,144.24Z"/><path class="cls-9" d="M25,179.11a1.74,1.74,0,0,1,1.07-.37c.92,0,2.54.22,1.9,1.79-.88,2.15-2.81,2.14-3.53,1.3C24.12,181.42,23.25,180.49,25,179.11Z"/><path class="cls-8" d="M19.66,90a2.42,2.42,0,0,1-1,1.19c-1.11.64-3.21,1.51-3.54-.83-.44-3.2,1.88-4.53,3.33-4C19.15,86.6,20.84,87.11,19.66,90Z"/><path class="cls-9" d="M19.15,90.2a2.14,2.14,0,0,1-1,.89c-1,.39-2.85.85-2.73-1.22.16-2.83,2.26-3.65,3.35-3C19.29,87.17,20.58,87.85,19.15,90.2Z"/><path class="cls-8" d="M101.31,110.47a2.42,2.42,0,0,1,.43,1.51c-.08,1.27-.52,3.51-2.65,2.49-2.91-1.4-2.73-4.07-1.51-5C98.18,109,99.54,107.87,101.31,110.47Z"/><path class="cls-9" d="M101.18,111a2.14,2.14,0,0,1,.17,1.34c-.23,1.05-.87,2.84-2.52,1.6-2.26-1.7-1.79-3.9-.65-4.46C98.74,109.2,100,108.5,101.18,111Z"/><path class="cls-8" d="M28.66,187.07a2.42,2.42,0,0,1,.5,1.49c0,1.28-.35,3.53-2.52,2.61-3-1.26-2.93-3.94-1.75-4.92C25.47,185.76,26.77,184.57,28.66,187.07Z"/><path class="cls-9" d="M28.56,187.6a2.14,2.14,0,0,1,.24,1.33c-.17,1.06-.73,2.88-2.44,1.72-2.34-1.59-2-3.81-.87-4.42C26,185.93,27.28,185.17,28.56,187.6Z"/><path class="cls-8" d="M65.84,8.32a2.42,2.42,0,0,1-1-1.2c-.45-1.19-1-3.42,1.39-3.35,3.23.08,4.17,2.59,3.44,3.94C69.29,8.37,68.51,10,65.84,8.32Z"/><path class="cls-9" d="M65.74,7.79A2.14,2.14,0,0,1,65,6.64c-.23-1-.38-2.95,1.64-2.49,2.76.62,3.24,2.82,2.43,3.8C68.7,8.42,67.82,9.58,65.74,7.79Z"/><path class="cls-8" d="M60.93,4.52a1.82,1.82,0,0,1-1.18.11c-.93-.23-2.52-.86-1.47-2.29,1.43-2,3.38-1.46,3.9-.43C62.44,2.41,63.09,3.57,60.93,4.52Z"/><path class="cls-9" d="M60.44,4.45a1.43,1.43,0,0,1-.91-.05c-.67-.28-1.77-.92-.75-1.86,1.4-1.29,2.79-.7,3,.12C61.92,3.06,62.22,4,60.44,4.45Z"/></g></g></svg>